<?xml version="1.0" ?><svg id="Layer_1" style="enable-background:new 0 0 96 96;" version="1.1" viewBox="0 0 96 96" xml:space="preserve" xmlns="http://www.w3.org/2000/svg" xmlns:xlink="http://www.w3.org/1999/xlink"><style type="text/css">
	.st0{fill:none;stroke:#000000;stroke-width:4;stroke-miterlimit:10;}
</style><g><path d="M87,9v67.4L48.8,86.6c-0.1,0-0.4,0.1-0.8,0.1s-0.8,0-0.8-0.1L9,76.4V9h36.6h4.9H87 M90.6,3H50.4c-1.3,0-3.6,0-4.9,0H5.4   C4.1,3,3,4.1,3,5.4v73.1c0,1.3,1.1,2.7,2.4,3.1l40.3,10.7c0.7,0.2,1.5,0.3,2.4,0.3s1.7-0.1,2.4-0.3l40.3-10.7   c1.3-0.3,2.4-1.7,2.4-3.1V5.4C93,4.1,91.9,3,90.6,3L90.6,3z"/></g><line class="st0" x1="3" x2="93" y1="18" y2="18"/><g><path class="st0" d="M4,70l41.4,11.3c1.4,0.4,3.7,0.4,5.1,0L92,70"/></g><g><path d="M30,48.1C30,40.5,35.1,36,41,36c3,0,5.4,1.4,7,3l-2.8,3.3c-1.2-1.1-2.4-1.8-4.1-1.8c-3.2,0-5.7,2.8-5.7,7.5   c0,4.8,2.2,7.5,5.7,7.5c1.9,0,3.4-1,4.6-2.2l2.8,3.3c-1.9,2.2-4.5,3.4-7.6,3.4C34.9,60,30,55.9,30,48.1z"/><path d="M52,52.9h-2.7v-3.3h3l0.5-3.9h-2.8v-3.3h3.3l0.8-5.9h3l-0.7,5.9h3.7l0.8-5.9h3l-0.7,5.9H66v3.3h-3.3l-0.5,3.9h3v3.3h-3.4   l-0.8,6.6h-3l0.8-6.6h-3.7l-0.8,6.6h-3L52,52.9z M59.2,49.6l0.5-3.9H56l-0.5,3.9H59.2z"/></g></svg>