<?xml version="1.0" ?><svg height="512" id="Layer_1" version="1.1" viewBox="0 0 512 512" width="512" xml:space="preserve" xmlns="http://www.w3.org/2000/svg" xmlns:cc="http://creativecommons.org/ns#" xmlns:dc="http://purl.org/dc/elements/1.1/" xmlns:inkscape="http://www.inkscape.org/namespaces/inkscape" xmlns:rdf="http://www.w3.org/1999/02/22-rdf-syntax-ns#" xmlns:sodipodi="http://sodipodi.sourceforge.net/DTD/sodipodi-0.dtd" xmlns:svg="http://www.w3.org/2000/svg"><defs id="defs12"/><g id="g6210"><rect height="512" id="rect2987" style="fill:#4086cd;fill-opacity:1;fill-rule:nonzero;stroke:none" width="512" x="0" y="5.6843419e-014"/><path d="m 141.00855,400.18422 -0.044,0.0933 h 2.0445 c 1.0578,0.0444 2.1022,0.16444 3.1689,0.16444 1.0755,0 2.1155,-0.12001 3.1732,-0.16444 h 200.4576 v -0.0533 c 1.4666,0.0533 2.8977,0.21778 4.3733,0.21778 56.231,0 101.8177,-45.95548 101.8177,-102.63984 0,-56.69325 -45.5867,-102.64429 -101.8177,-102.64429 -2.0711,0 -4.1023,0.18667 -6.1467,0.31112 -8.7377,-47.72438 -50.1643,-83.91099 -100.0442,-83.91099 -56.2267,0 -101.8132,45.95548 -101.8132,102.64429 0,1.48889 0.16,2.95111 0.2222,4.42665 -0.076,0 -0.1422,-0.008 -0.2222,-0.008 -49.7999,0 -90.1777,40.69772 -90.1777,90.91098 0,48.43993 37.6177,87.92876 84.991,90.65319 z" id="CloudApp" style="fill:#ffffff;fill-opacity:1"/></g></svg>