<?xml version="1.0" standalone="no"?>
<!DOCTYPE svg PUBLIC "-//W3C//DTD SVG 20010904//EN"
 "http://www.w3.org/TR/2001/REC-SVG-20010904/DTD/svg10.dtd">
<svg version="1.0" xmlns="http://www.w3.org/2000/svg"
 width="387.000000pt" height="384.000000pt" viewBox="0 0 387.000000 384.000000"
 preserveAspectRatio="xMidYMid meet">
<metadata>
Created by potrace 1.13, written by Peter Selinger 2001-2015
</metadata>
<g transform="translate(0.000000,384.000000) scale(0.100000,-0.100000)"
fill="#000000" stroke="none">
<path d="M74 3766 l-34 -34 0 -241 0 -241 1873 2 1872 3 0 243 0 244 -33 29
-32 29 -1806 0 -1806 0 -34 -34z"/>
<path d="M40 2091 c0 -943 1 -1000 17 -1005 1615 -470 1813 -526 1857 -526 34
0 323 80 957 265 500 146 911 265 914 265 3 0 5 450 5 1000 l0 1000 -1875 0
-1875 0 0 -999z m2505 375 c83 -38 152 -136 158 -222 l2 -37 -55 -13 c-75 -18
-77 -18 -83 15 -8 40 -61 97 -103 111 -52 17 -110 4 -155 -37 -59 -54 -74
-105 -74 -258 0 -114 3 -136 23 -182 55 -121 164 -154 276 -83 l46 30 0 60 0
60 -80 0 -80 0 0 75 0 75 150 0 150 0 0 -184 0 -185 -43 -35 c-24 -20 -70 -48
-103 -63 -51 -24 -71 -28 -149 -28 -74 0 -98 4 -133 23 -95 50 -164 153 -193
287 -18 83 -16 246 5 324 34 134 117 242 209 275 67 23 173 20 232 -8z m-2185
-166 l0 -180 130 0 130 0 0 180 0 180 75 0 75 0 0 -455 0 -455 -75 0 -75 0 0
200 0 200 -130 0 -130 0 0 -200 0 -200 -70 0 -70 0 0 455 0 455 70 0 70 0 0
-180z m725 -70 l45 0 0 -65 0 -65 -45 0 -45 0 0 -194 c0 -213 2 -221 59 -210
l31 7 0 -62 c0 -57 -2 -62 -26 -71 -38 -15 -101 -12 -134 5 -58 30 -64 57 -68
303 l-4 222 -29 0 -29 0 0 65 0 65 30 0 30 0 0 64 0 64 68 52 67 52 3 -116 3
-116 44 0z m320 0 l45 0 0 -65 0 -65 -45 0 -45 0 0 -194 c0 -213 2 -221 59
-210 l31 7 0 -62 c0 -57 -2 -62 -26 -71 -38 -15 -101 -12 -134 5 -58 30 -64
57 -68 303 l-4 222 -29 0 -29 0 0 65 0 65 30 0 30 0 0 64 0 64 68 52 67 52 3
-116 3 -116 44 0z m2150 0 l45 0 0 -65 0 -65 -45 0 -45 0 0 -194 c0 -213 2
-221 59 -210 l31 7 0 -62 c0 -57 -2 -62 -26 -71 -38 -15 -101 -12 -134 5 -58
30 -64 57 -68 303 l-4 222 -29 0 -29 0 0 65 0 65 30 0 30 0 0 64 0 64 68 52
67 52 3 -116 3 -116 44 0z m-1657 -27 c101 -82 138 -293 82 -475 -48 -157
-185 -216 -281 -122 l-39 38 0 -162 0 -162 -70 0 -70 0 0 455 0 455 65 0 65 0
0 -41 0 -42 22 28 c38 49 77 67 136 62 40 -3 61 -11 90 -34z m1233 14 c83 -43
139 -170 139 -311 l0 -56 -161 0 -162 0 6 -46 c6 -56 34 -96 75 -108 39 -11
79 12 96 55 11 29 12 30 66 23 30 -3 59 -10 64 -14 12 -12 -10 -72 -44 -119
-78 -106 -242 -109 -328 -5 -53 64 -67 121 -66 264 0 135 12 181 61 253 59 85
164 111 254 64z"/>
<path d="M1715 2088 c-42 -33 -55 -76 -55 -185 1 -137 28 -195 98 -209 26 -5
36 -1 61 23 40 41 54 100 49 208 -5 96 -22 142 -60 169 -31 22 -60 20 -93 -6z"/>
<path d="M3002 2094 c-29 -20 -52 -66 -52 -104 l0 -30 95 0 c92 0 95 1 95 23
0 12 -9 41 -19 64 -28 61 -73 79 -119 47z"/>
<path d="M40 767 c0 -143 2 -156 23 -187 12 -18 33 -41 47 -51 14 -9 409 -119
879 -244 732 -194 864 -226 926 -227 63 0 182 29 926 227 470 125 867 234 882
242 58 29 67 61 67 237 0 128 -3 157 -13 153 -8 -3 -411 -121 -896 -262 -859
-250 -885 -257 -969 -257 -84 1 -122 11 -962 257 -481 140 -883 258 -892 261
-17 5 -18 -7 -18 -149z"/>
</g>
</svg>
