<?xml version="1.0" encoding="utf-8"?>
<!-- Generator: Adobe Illustrator 18.0.0, SVG Export Plug-In . SVG Version: 6.00 Build 0)  -->
<!DOCTYPE svg PUBLIC "-//W3C//DTD SVG 1.1//EN" "http://www.w3.org/Graphics/SVG/1.1/DTD/svg11.dtd">
<svg version="1.1" xmlns="http://www.w3.org/2000/svg" xmlns:xlink="http://www.w3.org/1999/xlink" x="0px" y="0px"
	 viewBox="0 0 200 200" enable-background="new 0 0 200 200" xml:space="preserve">
<g id="Layer_14">
</g>
<g id="rabbitmq">
</g>
<g id="python">
</g>
<g id="golang">
</g>
<g id="django">
</g>
<g id="postgres">
</g>
<g id="centos">
</g>
<g id="fedora">
</g>
<g id="ruby">
</g>
<g id="rails">
</g>
<g id="ubuntu">
</g>
<g id="php">
</g>
<g id="java">
	<rect fill="#EA2D2E" width="200" height="200"/>
	<path fill="#FFFFFF" d="M84.2,100.7c-16.2,4.5,9.9,13.9,30.5,5c-3.4-1.3-5.8-2.8-5.8-2.8c-9.2,1.7-13.5,1.9-21.9,0.9
		C80.2,103,84.2,100.7,84.2,100.7L84.2,100.7z M112.3,91.8c-12.2,2.4-19.3,2.3-28.2,1.4c-6.9-0.7-2.4-4.1-2.4-4.1
		c-17.9,5.9,9.9,12.7,34.9,5.4C114,93.6,112.3,91.8,112.3,91.8L112.3,91.8z M121.9,40.6c0,0-36.1,9-18.9,28.9
		c5.1,5.9-1.3,11.1-1.3,11.1s12.9-6.7,7-15C103.1,57.8,98.8,54,121.9,40.6L121.9,40.6z M64.4,117.2c42.1,6.8,76.8-3.1,65.9-8
		c0,0,3,2.5-3.3,4.4c-11.9,3.6-49.6,4.7-60.1,0.1c-3.8-1.6,3.3-3.9,5.5-4.4c2.3-0.5,3.6-0.4,3.6-0.4C71.9,106,49,114.7,64.4,117.2
		L64.4,117.2z M115.8,83.6c2-1.4,4.8-2.6,4.8-2.6s-8,1.4-15.9,2.1c-9.7,0.8-20.1,1-25.4,0.3c-12.4-1.7,6.8-6.2,6.8-6.2
		s-7.5-0.5-16.6,3.9C58.7,86.3,96.3,88.7,115.8,83.6z M120.6,96.4c-0.1,0.2-0.4,0.5-0.4,0.5c26.4-7,16.7-24.5,4.1-20.1
		c-1.1,0.4-1.7,1.3-1.7,1.3s0.7-0.3,2.3-0.6C131.2,76.2,140.4,86.1,120.6,96.4z M98.2,77c-3.9-8.8-17.1-16.5,0-30.1
		c21.4-16.9,10.4-27.8,10.4-27.8c4.4,17.4-15.6,22.7-22.8,33.5C80.9,60,88.2,67.9,98.2,77z M121.3,120.7
		c-16.2,3.1-36.2,2.7-48.1,0.7c0,0,2.4,2,14.9,2.8c19,1.2,48.2-0.7,48.9-9.7C137,114.6,135.7,118,121.3,120.7L121.3,120.7z
		 M81.2,139.6c-3.5,0-6.6,0.9-9.1,2l0.8,3.1c2-0.7,4.4-1.4,7-1.4c3.5,0,4.9,1.4,4.9,4.3v2.4h-1.5c-8.5,0-12.3,3.2-12.3,8.1
		c0,4.3,2.5,6.6,7.3,6.6c3.1,0,5.3-1,7.5-2.9l0.4,2.8h3.6V147C89.6,142.5,87.3,139.6,81.2,139.6L81.2,139.6z M84.7,158.6
		c-1.2,1.6-3.6,2.4-5.3,2.4c-2.4,0-3.7-1.7-3.7-4c0-2.5,1.5-4.6,7.1-4.6h1.8V158.6z M103.9,159.4l-1-4.4l-4.6-14.8h-5.4l7.4,24.5
		h6.2c3.5-8.6,6.1-17.2,7.5-24.5h-5.2C107.9,146.3,106.2,153,103.9,159.4z M126.5,139.6c-3.5,0-6.6,0.9-9.2,2l0.7,3.1
		c2-0.7,4.6-1.4,7.1-1.4c3.5,0,5,1.4,5,4.3v2.4h-1.8c-8.5,0-12.3,3.2-12.3,8.1c0,4.3,2.5,6.6,7.3,6.6c3.1,0,5.3-1,7.5-2.9l0.4,2.8
		h3.8V147C135,142.5,132.5,139.6,126.5,139.6L126.5,139.6z M124.7,161.1c-2.4,0-3.7-1.7-3.7-4c0-2.5,1.4-4.6,7-4.6h2.1v6.1h-0.1
		C128.3,159.8,126.4,161.1,124.7,161.1z M62.6,159.1c0,4-0.5,5.7-1.2,7c-0.8,1.5-2.5,3-4.4,4l2.4,2.9c2.5-0.9,4.8-2.6,6.3-4.6
		c1.4-2.1,1.9-4.3,1.9-9.7v-27.1h-4.9V159.1z"/>
</g>
<g id="deer-resume">
</g>
<g id="_x32_048">
</g>
<g id="redis">
</g>
<g id="wordpress">
</g>
<g id="ghost">
</g>
<g id="phpmyadmin">
</g>
<g id="mongo-express">
</g>
<g id="earth">
</g>
<g id="nginx">
</g>
<g id="mysql">
</g>
<g id="mongo-db">
</g>
<g id="docker">
</g>
<g id="tomcat">
</g>
</svg>
