<?xml version="1.0" ?><svg id="Layer_1" style="enable-background:new 0 0 96 96;" version="1.1" viewBox="0 0 96 96" xml:space="preserve" xmlns="http://www.w3.org/2000/svg" xmlns:xlink="http://www.w3.org/1999/xlink"><style type="text/css">
	.st0{fill:none;stroke:#000000;stroke-width:4;stroke-miterlimit:10;}
</style><g><path d="M87,9v67.4L48.8,86.6c-0.1,0-0.4,0.1-0.8,0.1s-0.8,0-0.8-0.1L9,76.4V9h36.6h4.9H87 M90.6,3H50.4c-1.3,0-3.6,0-4.9,0H5.4   C4.1,3,3,4.1,3,5.4v73.1c0,1.3,1.1,2.7,2.4,3.1l40.3,10.7c0.7,0.2,1.5,0.3,2.4,0.3s1.7-0.1,2.4-0.3l40.3-10.7   c1.3-0.3,2.4-1.7,2.4-3.1V5.4C93,4.1,91.9,3,90.6,3L90.6,3z"/></g><line class="st0" x1="3" x2="93" y1="18" y2="18"/><g><path class="st0" d="M4,70l41.4,11.3c1.4,0.4,3.7,0.4,5.1,0L92,70"/></g><g><path d="M31.5,50.6V36h4.1v14.7c0,0.8,0.4,1.1,0.7,1.1c0.2,0,0.3,0,0.5-0.1l0.5,2.9c-0.4,0.2-1.1,0.3-2,0.3   C32.4,55,31.5,53.2,31.5,50.6z"/><path d="M38.4,49.7v-8.2h4.1v7.7c0,1.9,0.5,2.5,1.7,2.5c1,0,1.6-0.4,2.4-1.5v-8.7h4.1v13.2h-3.3L47,52.8H47   c-1.2,1.3-2.4,2.2-4.3,2.2C39.7,55,38.4,53,38.4,49.7z"/><path d="M52.8,51c0-2.8,2.3-4.3,7.7-4.8c-0.1-1.2-0.7-1.9-2.1-1.9c-1.2,0-2.3,0.5-3.6,1.2l-1.5-2.6c1.7-1,3.7-1.7,5.8-1.7   c3.5,0,5.4,1.9,5.4,6v7.6h-3.3l-0.3-1.4h-0.1c-1.2,1-2.4,1.7-4,1.7C54.3,55,52.8,53.2,52.8,51z M60.4,50.8v-2.3   c-2.9,0.4-3.8,1.2-3.8,2.2c0,0.9,0.6,1.3,1.6,1.3C59.1,52,59.7,51.5,60.4,50.8z"/></g></svg>