<?xml version="1.0" encoding="utf-8"?>
<!-- Generator: Adobe Illustrator 18.0.0, SVG Export Plug-In . SVG Version: 6.00 Build 0)  -->
<!DOCTYPE svg PUBLIC "-//W3C//DTD SVG 1.1//EN" "http://www.w3.org/Graphics/SVG/1.1/DTD/svg11.dtd">
<svg version="1.1" xmlns="http://www.w3.org/2000/svg" xmlns:xlink="http://www.w3.org/1999/xlink" x="0px" y="0px"
	 viewBox="0 0 200 200" enable-background="new 0 0 200 200" xml:space="preserve">
<g id="Layer_14">
</g>
<g id="rabbitmq">
</g>
<g id="python">
</g>
<g id="golang">
</g>
<g id="django">
</g>
<g id="postgres">
</g>
<g id="centos">
</g>
<g id="fedora">
</g>
<g id="ruby">
</g>
<g id="rails">
</g>
<g id="ubuntu">
</g>
<g id="php">
	<rect fill="#5D81B5" width="200" height="200"/>
	<path fill="#FFFFFF" d="M100,65.8c-37.3,0-67.5,15.3-67.5,34.2s30.2,34.2,67.5,34.2s67.5-15.3,67.5-34.2S137.3,65.8,100,65.8z
		 M82.4,106.7c-1.6,1.5-3.4,2.1-5.4,2.8c-2,0.6-4.5,0.5-7.5,0.5h-6.9l-1.9,11h-8.1l7.2-37.6h15.5c4.7,0,8.1,1.3,10.2,3.8
		c2.1,2.4,2.8,5.9,1.9,10.3c-0.4,1.8-0.9,3.5-1.8,5C84.9,104,83.8,105.4,82.4,106.7z M106,109.9l3.2-15.9c0.4-1.9,0.2-3.3-0.4-3.9
		c-0.6-0.7-2-1.1-4-1.1h-6.4l-4.1,21h-8l7.2-36.5h8l-1.9,9.9h7.1c4.5,0,7.6,0.9,9.3,2.5c1.7,1.6,2.2,3.7,1.5,7.2l-3.3,16.8H106z
		 M150.5,97.6c-0.4,1.8-0.9,3.5-1.8,5c-0.8,1.5-1.9,2.9-3.3,4.1c-1.6,1.5-3.4,2.1-5.4,2.8c-2,0.6-4.5,0.5-7.5,0.5h-6.9l-1.9,11h-8.1
		l7.2-37.6h15.5c4.7,0,8.1,1.3,10.2,3.8C150.7,89.7,151.3,93.2,150.5,97.6z M135.3,89h-5.5l-3,15.5h4.9c3.3,0,5.7-0.3,7.3-1.5
		c1.6-1.2,2.7-3.1,3.2-6c0.5-2.8,0.3-4.9-0.7-6C140.4,89.7,138.3,89,135.3,89L135.3,89z M72.3,89h-5.5l-3,15.5h4.9
		c3.3,0,5.7-0.3,7.3-1.5c1.6-1.2,2.7-3.1,3.2-6c0.5-2.8,0.3-4.9-0.7-6C77.4,89.7,75.4,89,72.3,89L72.3,89z"/>
</g>
<g id="java">
</g>
<g id="deer-resume">
</g>
<g id="_x32_048">
</g>
<g id="redis">
</g>
<g id="wordpress">
</g>
<g id="ghost">
</g>
<g id="phpmyadmin">
</g>
<g id="mongo-express">
</g>
<g id="earth">
</g>
<g id="nginx">
</g>
<g id="mysql">
</g>
<g id="mongo-db">
</g>
<g id="docker">
</g>
<g id="tomcat">
</g>
</svg>
