<?xml version="1.0" ?><svg id="Layer_1" style="enable-background:new 0 0 96 96;" version="1.1" viewBox="0 0 96 96" xml:space="preserve" xmlns="http://www.w3.org/2000/svg" xmlns:xlink="http://www.w3.org/1999/xlink"><style type="text/css">
	.st0{fill:none;stroke:#000000;stroke-width:4;stroke-miterlimit:10;}
</style><g><path d="M87,9v67.4L48.8,86.6c-0.1,0-0.4,0.1-0.8,0.1c-0.5,0-0.8,0-0.8-0.1L9,76.4V9h36.6h4.9H87 M90.6,3H50.4c-1.3,0-3.6,0-4.9,0   H5.4C4.1,3,3,4.1,3,5.4v73.1c0,1.3,1.1,2.7,2.4,3.1l40.3,10.7c0.7,0.2,1.5,0.3,2.4,0.3s1.7-0.1,2.4-0.3l40.3-10.7   c1.3-0.3,2.4-1.7,2.4-3.1V5.4C93,4.1,91.9,3,90.6,3L90.6,3z"/></g><line class="st0" x1="3" x2="93" y1="18" y2="18"/><g><path class="st0" d="M4,70l41.4,11.3c1.4,0.4,3.7,0.4,5.1,0L92,70"/></g><g><path d="M11,41h3.1l0.3,2h0.1c1-1,2.3-1.7,3.6-1.7c3.1,0,5,2.6,5,6.7c0,4.6-2.6,7.2-5.3,7.2c-1.1,0-2-0.5-2.9-1.4l0.2,2.1V60h-4V41   z M19.1,48c0-2.4-0.6-3.6-2.1-3.6c-0.8,0-1.1,0.4-2.1,1.2V51c0,0.6,1.3,0.9,1.9,0.9C18.2,51.9,19.1,50.7,19.1,48z"/><path d="M24.3,59.7l0.7-3c0.2,0.1,0.6,0.2,0.8,0.2c1.3,0,1.9-0.7,2.2-1.7l0.2-0.9L23.3,41h3.8l1.8,6c0.4,1.2,0.7,3,1,4H30   c0.3-1,0.6-2.8,0.9-4l1.5-6H36l-4.4,13.7c-1.2,3.4-2.6,5.2-5.6,5.2C25.3,59.9,24.8,59.9,24.3,59.7z"/><path d="M37.8,50v-5.4H36v-2.9l1.9-0.2l0.4-3.5h3.1v3.5h3v3.1h-3v5.3c0,1.5,0.6,2.1,1.6,2.1c0.4,0,0.9-0.1,1.2-0.3l0.6,2.9   c-0.7,0.2-1.6,0.5-2.8,0.5C39,55.1,37.8,53.1,37.8,50z"/><path d="M46,36h4v4.6V43c0.9-0.9,2.2-1.8,3.9-1.8c2.8,0,4.1,2,4.1,5.4V55h-4v-8c0-1.9-0.5-2.5-1.6-2.5c-0.9,0-1.4,0.5-2.4,1.3V55   h-4V36z"/><path d="M59.4,48.1c0-4.4,3-7,6.2-7c3.2,0,6.2,2.5,6.2,7c0,4.4-3,7-6.2,7C62.4,55.1,59.4,52.6,59.4,48.1z M67.9,48.1   c0-2.3-0.8-3.8-2.3-3.8c-1.6,0-2.3,1.5-2.3,3.8c0,2.3,0.8,3.8,2.3,3.8C67.1,51.9,67.9,50.5,67.9,48.1z"/><path d="M73,41h3l0.9,2H77c1.1-1,2.4-1.9,4.1-1.9c2.8,0,3.9,2.1,3.9,5.5V55h-4v-8c0-1.9-0.5-2.5-1.6-2.5c-0.9,0-1.4,0.5-2.4,1.3V55   h-4V41z"/></g></svg>