<?xml version="1.0" encoding="utf-8"?>
<!-- Generator: Adobe Illustrator 15.0.0, SVG Export Plug-In . SVG Version: 6.00 Build 0)  -->
<!DOCTYPE svg PUBLIC "-//W3C//DTD SVG 1.1//EN" "http://www.w3.org/Graphics/SVG/1.1/DTD/svg11.dtd">
<svg version="1.1" id="图层_1" xmlns="http://www.w3.org/2000/svg" xmlns:xlink="http://www.w3.org/1999/xlink" x="0px" y="0px"
	 width="18px" height="18px" viewBox="0 0 18 18" enable-background="new 0 0 18 18" xml:space="preserve">
<image display="none" overflow="visible" enable-background="new    " width="17" height="17" xlink:href="200E5512.jpeg"  transform="matrix(1.0588 0 0 1.0588 -9.765625e-004 -4.882813e-004)">
</image>
<g>
	<path fill="none" d="M15.75,1.085H2.25c-0.622,0-1.125,0.474-1.125,1.059v10.805c0,0.584,0.503,1.059,1.125,1.059h13.5
		c0.621,0,1.125-0.475,1.125-1.059V2.145C16.875,1.56,16.371,1.085,15.75,1.085z M5.021,11.723c0,0.248-0.224,0.449-0.5,0.449
		s-0.5-0.201-0.5-0.449V9.371c0-0.248,0.224-0.45,0.5-0.45s0.5,0.202,0.5,0.45V11.723z M8.007,11.723c0,0.248-0.224,0.449-0.5,0.449
		s-0.5-0.201-0.5-0.449V7.371c0-0.248,0.224-0.45,0.5-0.45s0.5,0.202,0.5,0.45V11.723z M10.994,11.723
		c0,0.248-0.225,0.449-0.5,0.449c-0.277,0-0.5-0.201-0.5-0.449V5.371c0-0.248,0.223-0.45,0.5-0.45c0.275,0,0.5,0.202,0.5,0.45
		V11.723z M13.98,11.723c0,0.248-0.225,0.449-0.5,0.449c-0.277,0-0.5-0.201-0.5-0.449V3.371c0-0.248,0.223-0.45,0.5-0.45
		c0.275,0,0.5,0.202,0.5,0.45V11.723z"/>
	<path d="M15.75,0.026H2.25C1.008,0.026,0,0.976,0,2.145v10.805c0,1.168,1.008,2.117,2.25,2.117h13.5c1.242,0,2.25-0.949,2.25-2.117
		V2.145C18,0.976,16.992,0.026,15.75,0.026z M16.875,12.949c0,0.584-0.504,1.059-1.125,1.059H2.25c-0.622,0-1.125-0.475-1.125-1.059
		V2.145c0-0.585,0.503-1.059,1.125-1.059h13.5c0.621,0,1.125,0.474,1.125,1.059V12.949z"/>
	<path fill="#272636" d="M14.399,17.038H4.05c-0.248,0-0.45,0.224-0.45,0.5s0.202,0.5,0.45,0.5h10.35c0.249,0,0.45-0.224,0.45-0.5
		S14.648,17.038,14.399,17.038z"/>
	<path d="M4.521,8.921c-0.276,0-0.5,0.202-0.5,0.45v2.352c0,0.248,0.224,0.449,0.5,0.449s0.5-0.201,0.5-0.449V9.371
		C5.021,9.123,4.797,8.921,4.521,8.921z"/>
	<path d="M7.507,6.921c-0.276,0-0.5,0.202-0.5,0.45v4.352c0,0.248,0.224,0.449,0.5,0.449s0.5-0.201,0.5-0.449V7.371
		C8.007,7.123,7.784,6.921,7.507,6.921z"/>
	<path d="M10.494,4.921c-0.277,0-0.5,0.202-0.5,0.45v6.352c0,0.248,0.223,0.449,0.5,0.449c0.275,0,0.5-0.201,0.5-0.449V5.371
		C10.994,5.123,10.77,4.921,10.494,4.921z"/>
	<path d="M13.48,2.921c-0.277,0-0.5,0.202-0.5,0.45v8.352c0,0.248,0.223,0.449,0.5,0.449c0.275,0,0.5-0.201,0.5-0.449V3.371
		C13.98,3.123,13.756,2.921,13.48,2.921z"/>
</g>
</svg>
