<?xml version="1.0" encoding="utf-8"?>
<!-- Generator: Adobe Illustrator 15.0.0, SVG Export Plug-In . SVG Version: 6.00 Build 0)  -->
<!DOCTYPE svg PUBLIC "-//W3C//DTD SVG 1.1//EN" "http://www.w3.org/Graphics/SVG/1.1/DTD/svg11.dtd">
<svg version="1.1" id="图层_1" xmlns="http://www.w3.org/2000/svg" xmlns:xlink="http://www.w3.org/1999/xlink" x="0px" y="0px"
	 width="14px" height="14px" viewBox="0 0 14 14" enable-background="new 0 0 14 14" xml:space="preserve">
<g>
	<path fill="#050101" d="M0,2.675c0,1.687,0,9.113,0,9.269c0,0.176-0.005,0.393,0.336,0.393c0.34,0,13.294,0,13.294,0
		S14,12.36,14,11.849c0-1.852,0-8.352,0-8.857c0-0.59-0.063-0.646-0.724-0.655c-0.315,0-11.052,0-12.981,0
		C0.052,2.347-0.005,2.395,0,2.675z M0.702,11.056L4.68,7.948l0.998,0.859C6.222,9.275,6.783,9.326,7,9.326
		c0.216,0,0.778-0.051,1.322-0.519l0.989-0.853l3.986,3.114v0.574H0.702V11.056z M13.298,10.189l-3.45-2.695l3.45-2.972V10.189z
		 M13.298,3.606l-5.435,4.68C7.497,8.602,7.138,8.636,7,8.636s-0.497-0.034-0.862-0.35L4.756,7.097L4.713,7.043l-0.01,0.008
		L0.702,3.606V3.03h12.596V3.606z M0.702,4.522l3.442,2.965l-3.442,2.689V4.522z"/>
</g>
</svg>
