<?xml version="1.0" encoding="utf-8"?>
<!-- Generator: Adobe Illustrator 15.0.0, SVG Export Plug-In . SVG Version: 6.00 Build 0)  -->
<!DOCTYPE svg PUBLIC "-//W3C//DTD SVG 1.1//EN" "http://www.w3.org/Graphics/SVG/1.1/DTD/svg11.dtd">
<svg version="1.1" id="图层_1" xmlns="http://www.w3.org/2000/svg" xmlns:xlink="http://www.w3.org/1999/xlink" x="0px" y="0px"
	 width="18px" height="18px" viewBox="0 0 18 18" enable-background="new 0 0 18 18" xml:space="preserve">
<path display="none" fill="#020202" d="M28.042,15.208c-4.419,0-8,3.582-8,8s3.581,8,8,8c4.418,0,8-3.582,8-8
	S32.46,15.208,28.042,15.208z M28.042,30.21c-3.859,0-7-3.152-7-7.008s3.141-6.992,7-6.992s7,3.137,7,6.992
	S31.901,30.21,28.042,30.21z M31.644,22.811h-6.531l2.377-2.55c0.156-0.156,0.156-0.41,0-0.566s-0.409-0.156-0.564,0l-3.262,3.524
	l3.211,3.549c0.078,0.078,0.181,0.117,0.283,0.117c0.102,0,0.204-0.039,0.282-0.117c0.156-0.155,0.156-0.409,0-0.565l-2.353-2.592
	h6.557c0.221,0,0.4-0.18,0.4-0.4S31.864,22.811,31.644,22.811z"/>
<g>
	<path d="M15.516,14.203l-0.338-0.339L10.313,9l5.744-5.746c0.145-0.143,0.217-0.316,0.217-0.52s-0.072-0.376-0.217-0.52
		C15.914,2.072,15.74,2,15.537,2s-0.377,0.072-0.52,0.215L9.273,7.959L3.527,2.215C3.384,2.072,3.21,2,3.007,2
		s-0.376,0.072-0.52,0.215c-0.143,0.144-0.215,0.317-0.215,0.52c0,0.204,0.072,0.378,0.215,0.521L8.232,9l-4.864,4.864l-0.337,0.339
		l-0.543,0.541c-0.143,0.143-0.215,0.318-0.215,0.52c0,0.205,0.072,0.378,0.215,0.52C2.631,15.928,2.804,16,3.007,16
		c0.205,0,0.379-0.072,0.521-0.217l0.542-0.541l0.337-0.338l4.865-4.864l4.864,4.864l0.34,0.338l0.541,0.541
		C15.16,15.928,15.334,16,15.537,16s0.379-0.072,0.52-0.217c0.145-0.142,0.217-0.314,0.217-0.52c0-0.201-0.072-0.377-0.217-0.52
		L15.516,14.203z"/>
</g>
</svg>
