<?xml version="1.0" encoding="utf-8"?>
<!-- Generator: Adobe Illustrator 15.0.0, SVG Export Plug-In . SVG Version: 6.00 Build 0)  -->
<!DOCTYPE svg PUBLIC "-//W3C//DTD SVG 1.1//EN" "http://www.w3.org/Graphics/SVG/1.1/DTD/svg11.dtd">
<svg version="1.1" id="图层_1" xmlns="http://www.w3.org/2000/svg" xmlns:xlink="http://www.w3.org/1999/xlink" x="0px" y="0px"
	 width="12px" height="12px" viewBox="2.5 3.406 12 12" enable-background="new 2.5 3.406 12 12" xml:space="preserve">
<path display="none" fill="#020202" d="M28.042,15.208c-4.419,0-8,3.582-8,8s3.581,8,8,8c4.418,0,8-3.582,8-8
	S32.46,15.208,28.042,15.208z M28.042,30.21c-3.858,0-7-3.151-7-7.008s3.142-6.992,7-6.992s7,3.138,7,6.992S31.9,30.21,28.042,30.21
	z M31.645,22.811h-6.531l2.377-2.55c0.156-0.155,0.156-0.409,0-0.565s-0.409-0.156-0.564,0l-3.262,3.523l3.211,3.549
	c0.078,0.078,0.182,0.117,0.283,0.117s0.203-0.039,0.281-0.117c0.156-0.154,0.156-0.408,0-0.564l-2.353-2.592h6.558
	c0.221,0,0.399-0.18,0.399-0.4C32.044,22.991,31.864,22.811,31.645,22.811z"/>
<g>
	<path fill="#020202" d="M14.337,5.59l-2.021-2.021c-0.218-0.218-0.572-0.218-0.79,0l-7.942,7.944l0,0
		c-0.035,0.037-0.061,0.082-0.075,0.131l-0.995,3.33c-0.035,0.119-0.002,0.246,0.085,0.334c0.087,0.087,0.215,0.119,0.333,0.084
		l3.33-0.995c0.049-0.015,0.094-0.04,0.131-0.075l0.001,0.001l0.009-0.01l0.266-0.266l7.669-7.669
		C14.554,6.162,14.554,5.808,14.337,5.59z M4.57,11.475l6.183-6.184l1.861,1.862l-6.184,6.183L4.57,11.475z M13.783,5.984
		l-0.694,0.694l-1.861-1.862l0.694-0.694L13.783,5.984z M3.334,14.572l0.762-2.547l1.786,1.786L3.334,14.572z"/>
</g>
</svg>
