<?xml version="1.0" encoding="utf-8"?>
<!-- Generator: Adobe Illustrator 15.0.0, SVG Export Plug-In . SVG Version: 6.00 Build 0)  -->
<!DOCTYPE svg PUBLIC "-//W3C//DTD SVG 1.1//EN" "http://www.w3.org/Graphics/SVG/1.1/DTD/svg11.dtd">
<svg version="1.1" id="图层_1" xmlns="http://www.w3.org/2000/svg" xmlns:xlink="http://www.w3.org/1999/xlink" x="0px" y="0px"
	 width="14px" height="14px" viewBox="0 0 14 14" enable-background="new 0 0 14 14" xml:space="preserve">
<g>
	<path fill="#050101" d="M10.262,14c-0.895,0-2.05-0.602-2.86-1.106c-1.087-0.677-2.257-1.611-3.296-2.634l-0.004-0.004l-0.33-0.333
		C2.76,8.874,1.834,7.692,1.164,6.596c-0.5-0.82-1.096-1.986-1.096-2.889c0-0.966,0.685-1.992,0.979-2.389
		C1.276,1.009,2.079,0,2.761,0C3.04,0,3.342,0.185,3.738,0.6c0.351,0.367,0.687,0.823,0.906,1.141
		c0.297,0.427,0.57,0.874,0.771,1.258c0.325,0.623,0.363,0.89,0.363,1.037c0,0.296-0.153,0.553-0.455,0.763
		C5.125,4.938,4.886,5.042,4.655,5.143C4.5,5.211,4.251,5.32,4.156,5.396c0.033,0.142,0.178,0.483,0.568,1.063
		C5.089,6.998,5.56,7.584,5.985,8.025c0.437,0.43,1.017,0.904,1.551,1.272C8.11,9.692,8.448,9.839,8.589,9.872
		c0.075-0.096,0.183-0.347,0.25-0.504C8.939,9.135,9.042,8.894,9.18,8.693c0.208-0.306,0.463-0.46,0.756-0.46
		c0.146,0,0.41,0.038,1.026,0.366c0.381,0.203,0.824,0.48,1.247,0.779c0.314,0.223,0.766,0.562,1.129,0.915
		c0.411,0.4,0.595,0.704,0.595,0.987c0,0.688-0.999,1.498-1.306,1.73C12.234,13.309,11.219,14,10.262,14L10.262,14z M4.679,9.67
		c0.997,0.98,2.116,1.875,3.152,2.52c1.004,0.625,1.891,0.984,2.431,0.984c0.481,0,1.167-0.297,1.836-0.795
		c0.293-0.217,0.559-0.46,0.75-0.684c0.18-0.209,0.245-0.345,0.262-0.4c-0.069-0.15-0.48-0.62-1.442-1.289
		C11.29,9.742,10.9,9.502,10.57,9.326c-0.415-0.221-0.589-0.259-0.628-0.266c-0.016,0.012-0.061,0.049-0.13,0.166
		c-0.076,0.13-0.15,0.303-0.222,0.47c-0.089,0.206-0.18,0.418-0.291,0.59c-0.182,0.278-0.405,0.421-0.663,0.421
		c-0.005,0-0.01,0-0.015,0c-0.126-0.004-0.508-0.012-1.547-0.726C6.502,9.587,5.879,9.076,5.41,8.613L5.402,8.605
		C4.945,8.132,4.438,7.503,4.048,6.924C3.341,5.875,3.332,5.489,3.33,5.362C3.324,5.097,3.463,4.867,3.742,4.681
		C3.913,4.567,4.125,4.474,4.33,4.384C4.495,4.312,4.666,4.237,4.796,4.16c0.115-0.069,0.152-0.115,0.163-0.13
		c-0.006-0.04-0.044-0.215-0.262-0.634C4.523,3.061,4.284,2.667,4.024,2.287C3.361,1.316,2.896,0.901,2.747,0.831
		C2.692,0.848,2.557,0.914,2.35,1.095C2.129,1.288,1.889,1.557,1.673,1.853C1.181,2.528,0.887,3.221,0.887,3.707
		c0,0.545,0.355,1.44,0.975,2.456C2.5,7.207,3.386,8.338,4.356,9.344L4.679,9.67L4.679,9.67z"/>
</g>
</svg>
