<?xml version="1.0" encoding="utf-8"?>
<!-- Generator: Adobe Illustrator 15.0.0, SVG Export Plug-In . SVG Version: 6.00 Build 0)  -->
<!DOCTYPE svg PUBLIC "-//W3C//DTD SVG 1.1//EN" "http://www.w3.org/Graphics/SVG/1.1/DTD/svg11.dtd">
<svg version="1.1" id="图层_1" xmlns="http://www.w3.org/2000/svg" xmlns:xlink="http://www.w3.org/1999/xlink" x="0px" y="0px"
	 width="20px" height="20px" viewBox="0 0 20 20" enable-background="new 0 0 20 20" xml:space="preserve">
<g>
	<path fill="#050101" d="M20,20.001c-0.256-1.011-0.835-3.084-1.402-3.673c-1.024-1.063-6.144-0.967-6.402-2.813
		c-0.053-0.377-0.078-1.143-0.079-1.504h0.024c0.592-0.462,1.081-1.118,1.192-1.297c0.131-0.21,0.399-0.799,0.604-1.529
		c0.341-0.038,0.65-0.625,0.877-1.273c0.225-0.639,0.089-1.21-0.202-1.386c0.315-0.98,0.278-1.923,0.035-2.996
		c-0.094-0.413-0.267-1.084-0.974-1.614c-0.132-0.601-0.5-1.216-1.383-1.631C10.146-0.724,7.364,1.38,6.422,0.064
		C5.323,1.247,5.93,2.332,5.667,2.871C5.086,4.06,5.285,5.567,5.522,6.491c-0.346,0.113-0.531,0.723-0.287,1.42
		C5.462,8.56,5.771,9.146,6.112,9.185c0.205,0.73,0.474,1.318,0.604,1.529c0.105,0.168,0.541,0.752,1.08,1.205
		c0.02,0.215-0.001,1.094-0.072,1.596c-0.259,1.847-5.343,1.783-6.403,2.813c-0.613,0.597-1.001,2.347-1.001,2.347L0,20.001H20
		L20,20.001z"/>
</g>
</svg>
