<?xml version="1.0" encoding="utf-8"?>
<!-- Generator: Adobe Illustrator 15.0.0, SVG Export Plug-In . SVG Version: 6.00 Build 0)  -->
<!DOCTYPE svg PUBLIC "-//W3C//DTD SVG 1.1//EN" "http://www.w3.org/Graphics/SVG/1.1/DTD/svg11.dtd">
<svg version="1.1" id="图层_1" xmlns="http://www.w3.org/2000/svg" xmlns:xlink="http://www.w3.org/1999/xlink" x="0px" y="0px"
	 width="16px" height="16px" viewBox="0 0 16 16" enable-background="new 0 0 16 16" xml:space="preserve">
<g>
	<defs>
		<polyline id="SVGID_1_" points="16,0 16,16 0,16 0,0 		"/>
	</defs>
	<clipPath id="SVGID_2_">
		<use xlink:href="#SVGID_1_"  overflow="visible"/>
	</clipPath>
	<path clip-path="url(#SVGID_2_)" fill="#272636" d="M8.1,0.999c1.749,0,2.722,1.421,2.899,1.705l0.008,0.015l0.009,0.017
		c0.223,0.45,0.277,0.907,0.325,1.31c0.052,0.441,0.051,0.838,0.04,1.093l-0.015,0.329l0.243,0.22
		c0.197,0.177,0.309,0.431,0.309,0.697c0,0.516-0.385,1.32-0.794,1.465l-0.265,0.094l-0.126,0.251
		C10.435,8.79,9.923,9.59,9.182,10.033l-0.341,0.204v0.397v0.545v0.235l0.144,0.189c0.348,0.457,0.755,0.917,1.488,0.989
		c0.909,0.099,3.657,0.624,4.352,1.713c0.059,0.091,0.139,0.151,0.167,0.695H1.009c0.04-0.751,0.161-0.693,0.167-0.703
		c0.619-1.035,3.192-1.599,4.335-1.71c0.698-0.059,1.161-0.55,1.512-1.008l0.145-0.188v-0.237v-0.546v-0.387l-0.329-0.206
		C6.129,9.572,5.63,8.788,5.336,8.207L5.201,7.939L4.915,7.854C4.471,7.718,4.076,6.919,4.076,6.385
		c0-0.284,0.124-0.549,0.338-0.727l0.222-0.182l0.029-0.285L4.67,5.154l0.01-0.078L4.674,4.999C4.657,4.813,4.649,4.614,4.649,4.405
		c0-1.084,0.314-1.54,0.5-1.715l0.314-0.294L5.343,1.983C5.305,1.852,5.253,1.672,5.21,1.519c0.38-0.02,1.017-0.088,1.667-0.306
		C7.297,1.07,7.708,0.999,8.1,0.999 M8.104,0C7.617,0,7.111,0.087,6.602,0.258C5.806,0.526,5.027,0.547,4.807,0.547H4.753
		c-0.007,0-0.013,0-0.02,0c-0.155,0-0.303,0.092-0.378,0.233c-0.092,0.173-0.101,0.19,0.186,1.173
		C4.217,2.258,3.792,2.915,3.792,4.265c0,0.233,0.009,0.462,0.028,0.68C3.816,4.965,3.814,4.986,3.813,5.007
		C3.422,5.328,3.196,5.805,3.196,6.322c0,0.784,0.544,1.965,1.386,2.221c0.376,0.741,0.971,1.634,1.824,2.168v0.566
		c-0.182,0.238-0.438,0.441-1.057,0.492c-0.04,0.003-4.039,0.408-5.068,2.129C0.07,14.252,0.012,14.989,0,15.545
		c-0.004,0.12,0.041,0.235,0.123,0.321C0.206,15.952,0.318,16,0.436,16h15.127c0.117,0,0.229-0.047,0.311-0.132
		C15.956,15.783,16,15.67,16,15.551c-0.004-0.365-0.042-1.257-0.301-1.663c-1.062-1.667-5.018-2.107-5.057-2.111
		c-0.657-0.065-0.854-0.229-1.041-0.475v-0.565c0.896-0.536,1.507-1.45,1.889-2.207c0.796-0.283,1.309-1.447,1.309-2.207
		c0-0.487-0.204-0.943-0.56-1.264c0.013-0.309,0.013-0.754-0.046-1.251c-0.054-0.454-0.12-1.019-0.407-1.599
		c-0.005-0.014-0.013-0.026-0.019-0.039c-0.001,0-0.001-0.001-0.001-0.002c-0.002-0.003-0.004-0.006-0.006-0.01
		c-0.009-0.016-0.019-0.029-0.027-0.044C11.5,1.739,10.3,0,8.104,0"/>
</g>
</svg>
