<?xml version="1.0" encoding="utf-8"?>
<!-- Generator: Adobe Illustrator 18.0.0, SVG Export Plug-In . SVG Version: 6.00 Build 0)  -->
<!DOCTYPE svg PUBLIC "-//W3C//DTD SVG 1.1//EN" "http://www.w3.org/Graphics/SVG/1.1/DTD/svg11.dtd">
<svg version="1.1" xmlns="http://www.w3.org/2000/svg" xmlns:xlink="http://www.w3.org/1999/xlink" x="0px" y="0px"
	 viewBox="0 0 200 200" enable-background="new 0 0 200 200" xml:space="preserve">
<g id="Layer_14">
</g>
<g id="rabbitmq">
</g>
<g id="python">
</g>
<g id="golang">
</g>
<g id="django">
	<rect fill="#235B31" width="200" height="200"/>
	<g>
		<g>
			<path fill="#FFFFFF" d="M42.7,73.8h8.2v37.9c-4.2,0.8-7.3,1.1-10.6,1.1c-10,0-15.2-4.5-15.2-13.2c0-8.4,5.5-13.8,14.1-13.8
				c1.3,0,2.3,0.1,3.6,0.4L42.7,73.8L42.7,73.8z M42.7,92.9c-1-0.3-1.8-0.4-2.8-0.4c-4.2,0-6.5,2.6-6.5,7c0,4.4,2.3,6.8,6.5,6.8
				c0.9,0,1.6-0.1,2.8-0.2C42.7,106.1,42.7,92.9,42.7,92.9z"/>
			<path fill="#FFFFFF" d="M64,86.5v19c0,6.5-0.5,9.7-1.9,12.4c-1.3,2.6-3.1,4.3-6.7,6.1l-7.6-3.6c3.6-1.7,5.4-3.2,6.5-5.5
				c1.2-2.3,1.5-5.1,1.5-12.2V86.5H64z M55.8,73.9H64v8.4h-8.2V73.9z"/>
			<path fill="#FFFFFF" d="M68.9,88.3c3.6-1.7,7.1-2.4,10.9-2.4c4.2,0,7,1.1,8.2,3.3c0.7,1.2,0.9,2.8,0.9,6.2v16.7
				c-3.7,0.5-8.3,0.9-11.7,0.9c-6.9,0-10-2.4-10-7.7c0-5.7,4.1-8.4,14.2-9.3v-1.8c0-1.5-0.7-2-2.8-2c-3,0-6.4,0.9-9.6,2.5L68.9,88.3
				L68.9,88.3z M81.7,101.4c-5.4,0.5-7.2,1.4-7.2,3.5c0,1.6,1,2.3,3.2,2.3c1.2,0,2.3-0.1,3.9-0.4V101.4L81.7,101.4z"/>
			<path fill="#FFFFFF" d="M92.9,87.8c4.8-1.3,8.8-1.9,12.9-1.9c4.2,0,7.2,1,9,2.8c1.7,1.8,2.2,3.7,2.2,7.8v16.1h-8.2V96.8
				c0-3.1-1.1-4.3-4-4.3c-1.1,0-2.1,0.1-3.8,0.6v19.5h-8.2L92.9,87.8L92.9,87.8z"/>
			<path fill="#FFFFFF" d="M120.2,117c2.9,1.5,5.7,2.2,8.8,2.2c5.4,0,7.7-2.2,7.7-7.4c0-0.1,0-0.1,0-0.2c-1.6,0.8-3.2,1.1-5.3,1.1
				c-7.2,0-11.8-4.7-11.8-12.2c0-9.3,6.8-14.6,18.7-14.6c3.5,0,6.8,0.4,10.7,1.2l-2.8,5.9c-2.2-0.4-0.2-0.1-1.8-0.2v0.9l0.1,3.5
				l0.1,4.5c0.1,1.1,0.1,2.2,0.1,3.4c0,1,0,1.5,0,2.2c0,7-0.6,10.3-2.3,13c-2.6,4-7,6-13.3,6c-3.2,0-6-0.5-8.8-1.6L120.2,117
				L120.2,117z M136.5,92.5c-0.1,0-0.2,0-0.3,0h-0.6c-1.6-0.1-3.5,0.4-4.7,1.2c-2,1.1-3,3.1-3,6c0,4.1,2,6.4,5.6,6.4
				c1.1,0,2-0.2,3.1-0.5v-0.6v-2.2c0-1-0.1-2-0.1-3.1l-0.1-3.8l-0.1-2.7L136.5,92.5L136.5,92.5z"/>
			<path fill="#FFFFFF" d="M161.7,85.8c8.2,0,13.2,5.2,13.2,13.5c0,8.6-5.2,13.9-13.5,13.9c-8.2,0-13.3-5.2-13.3-13.5
				C148.2,91.2,153.4,85.8,161.7,85.8z M161.6,106.6c3.1,0,5-2.6,5-7.1c0-4.5-1.8-7.1-4.9-7.1c-3.2,0-5.1,2.6-5.1,7.1
				C156.5,104,158.4,106.6,161.6,106.6z"/>
		</g>
	</g>
</g>
<g id="postgres">
</g>
<g id="centos">
</g>
<g id="fedora">
</g>
<g id="ruby">
</g>
<g id="rails">
</g>
<g id="ubuntu">
</g>
<g id="php">
</g>
<g id="java">
</g>
<g id="deer-resume">
</g>
<g id="_x32_048">
</g>
<g id="redis">
</g>
<g id="wordpress">
</g>
<g id="ghost">
</g>
<g id="phpmyadmin">
</g>
<g id="mongo-express">
</g>
<g id="earth">
</g>
<g id="nginx">
</g>
<g id="mysql">
</g>
<g id="mongo-db">
</g>
<g id="docker">
</g>
<g id="tomcat">
</g>
</svg>
