<?xml version="1.0" standalone="no"?>
<!DOCTYPE svg PUBLIC "-//W3C//DTD SVG 20010904//EN"
 "http://www.w3.org/TR/2001/REC-SVG-20010904/DTD/svg10.dtd">
<svg version="1.0" xmlns="http://www.w3.org/2000/svg"
 width="387.000000pt" height="384.000000pt" viewBox="0 0 387.000000 384.000000"
 preserveAspectRatio="xMidYMid meet">
<metadata>
Created by potrace 1.13, written by Peter Selinger 2001-2015
</metadata>
<g transform="translate(0.000000,384.000000) scale(0.100000,-0.100000)"
fill="#000000" stroke="none">
<path d="M74 3766 l-34 -34 0 -241 0 -241 1873 2 1872 3 0 243 0 244 -33 29
-32 29 -1806 0 -1806 0 -34 -34z"/>
<path d="M40 2091 c0 -943 1 -1000 17 -1005 1615 -470 1813 -526 1857 -526 34
0 323 80 957 265 500 146 911 265 914 265 3 0 5 450 5 1000 l0 1000 -1875 0
-1875 0 0 -999z m3090 263 c72 -21 149 -97 179 -178 12 -33 20 -65 17 -71 -2
-7 -24 -15 -48 -18 -23 -3 -57 -9 -74 -13 -29 -5 -32 -4 -38 26 -3 18 -23 49
-44 70 -45 45 -95 58 -153 41 -99 -30 -141 -114 -142 -286 -1 -184 41 -276
141 -306 86 -25 165 24 198 124 9 29 18 53 19 54 6 9 141 -47 143 -59 2 -8 -7
-41 -19 -73 -31 -84 -115 -168 -188 -189 -191 -56 -364 37 -432 232 -26 73
-36 234 -20 328 28 161 119 281 245 320 57 18 152 17 216 -2z m-2040 -69 l0
-75 -205 0 -205 0 0 -100 0 -100 190 0 190 0 0 -75 0 -75 -190 0 -190 0 0
-125 0 -125 215 0 215 0 0 -75 0 -75 -295 0 -295 0 0 450 0 450 285 0 285 0 0
-75z m352 -55 c40 -71 75 -130 78 -130 3 0 38 59 79 130 l73 130 89 0 c49 0
89 -3 89 -6 0 -4 -52 -98 -115 -210 -63 -112 -115 -209 -115 -216 0 -7 59
-114 130 -238 l129 -225 -86 -3 c-48 -2 -92 -1 -98 2 -6 2 -47 68 -90 145 -43
78 -82 141 -86 141 -4 0 -44 -65 -88 -145 l-82 -145 -95 0 c-52 0 -93 3 -91 8
126 217 257 452 257 460 0 5 -49 98 -110 205 -60 107 -113 202 -116 211 -5 14
6 16 84 16 l91 0 73 -130z m1088 55 l0 -75 -205 0 -205 0 0 -100 0 -100 190 0
190 0 0 -75 0 -75 -190 0 -190 0 0 -125 0 -125 215 0 215 0 0 -75 0 -75 -295
0 -295 0 0 450 0 450 285 0 285 0 0 -75z"/>
<path d="M40 767 c0 -143 2 -156 23 -187 12 -18 33 -41 47 -51 14 -9 409 -119
879 -244 732 -194 864 -226 926 -227 63 0 182 29 926 227 470 125 867 234 882
242 58 29 67 61 67 237 0 128 -3 157 -13 153 -8 -3 -411 -121 -896 -262 -859
-250 -885 -257 -969 -257 -84 1 -122 11 -962 257 -481 140 -883 258 -892 261
-17 5 -18 -7 -18 -149z"/>
</g>
</svg>
