<svg xmlns="http://www.w3.org/2000/svg" viewBox="0 0 200 200" enable-background="new 0 0 200 200"><g><path fill="#333" d="M0 0h200v200h-200z"/><path fill-rule="evenodd" clip-rule="evenodd" fill="#fff" d="M48.2 97.3c0-.4-.2-.9-.6-1.1l-10.3-5.9c-.2-.1-.4-.2-.6-.2h-.1c-.2 0-.4.1-.6.2l-10.3 5.9c-.4.2-.6.6-.6 1.1v16c0 .2.1.4.3.5.2.1.4.1.6 0l6.1-3.5c.4-.2.6-.6.6-1.1v-7.5c0-.4.2-.9.6-1.1l2.6-1.5c.2-.1.4-.2.6-.2.2 0 .4.1.6.2l2.6 1.5c.4.2.6.6.6 1.1v7.5c0 .4.2.9.6 1.1l6.1 3.5c.2.1.4.1.6 0 .2-.1.3-.3.3-.5l.3-16zM103.4 75.3c-.2-.1-.4-.1-.6 0-.2.1-.3.3-.3.5v15.9c0 .2-.1.3-.2.4-.1.1-.3.1-.4 0l-2.6-1.5c-.4-.2-.9-.2-1.2 0l-10.3 6c-.4.2-.6.6-.6 1.1v11.9c0 .4.2.9.6 1.1l10.3 6c.4.2.9.2 1.2 0l10.3-6c.4-.2.6-.6.6-1.1v-29.8c0-.5-.2-.9-.6-1.1l-6.2-3.4zm-1 30.3c0 .1-.1.2-.2.3l-3.6 2c-.1.1-.2.1-.3 0l-3.6-2c-.1-.1-.2-.2-.2-.3v-4.1c0-.1.1-.2.2-.3l3.6-2.1c.1-.1.2-.1.3 0l3.6 2.1c.1.1.2.2.2.3v4.1zM140.4 101.4c.4-.2.6-.6.6-1.1v-2.9c0-.4-.2-.9-.6-1.1l-10.3-6c-.4-.2-.9-.2-1.3 0l-10.3 6c-.4.2-.6.6-.6 1.1v11.9c0 .4.2.9.6 1.1l10.3 5.9c.4.2.8.2 1.2 0l6.2-3.5c.2-.1.3-.3.3-.5s-.1-.4-.3-.5l-10.4-6c-.2-.1-.3-.3-.3-.5v-3.7c0-.2.1-.4.3-.5l3.2-1.9c.2-.1.4-.1.6 0l3.2 1.9c.2.1.3.3.3.5v2.9c0 .2.1.4.3.5.2.1.4.1.6 0l6.4-3.6z"/><path fill-rule="evenodd" clip-rule="evenodd" fill="#80BD01" d="M67 90.4c.4-.2.9-.2 1.2 0l10.3 6c.4.2.6.6.6 1.1v11.9c0 .4-.2.9-.6 1.1l-10.3 6c-.4.2-.9.2-1.2 0l-10.3-6c-.4-.2-.6-.6-.6-1.1v-12c0-.4.2-.9.6-1.1l10.3-5.9z"/><path fill="#80BD01" d="M160.5 116.6c-.4 0-.7-.1-1-.3l-3.3-1.9c-.5-.3-.2-.4-.1-.4.6-.2.8-.3 1.5-.7h.2l2.5 1.5c.1.1.2.1.3 0l9.8-5.6c.1-.1.1-.2.1-.3v-11.3c0-.1-.1-.2-.2-.3l-9.7-5.6c-.1-.1-.2-.1-.3 0l-9.7 5.6c-.1.1-.2.2-.2.3v11.3c0 .1.1.2.2.3l2.7 1.5c1.4.7 2.3-.1 2.3-1v-11.1c0-.2.1-.3.3-.3h1.2c.2 0 .3.1.3.3v11.1c0 1.9-1.1 3-2.9 3-.6 0-1 0-2.2-.6l-2.6-1.5c-.6-.4-1-1-1-1.8v-11.2c0-.7.4-1.4 1-1.8l9.8-5.6c.6-.3 1.4-.3 2 0l9.8 5.6c.6.4 1 1 1 1.8v11.3c0 .7-.4 1.4-1 1.8l-9.8 5.6c-.3.2-.7.3-1 .3zM163.5 108.8c-4.3 0-5.2-2-5.2-3.6 0-.2.1-.3.3-.3h1.3c.1 0 .3.1.3.2.2 1.3.8 1.9 3.3 1.9 2.1 0 2.9-.5 2.9-1.6 0-.6-.2-1.1-3.4-1.4-2.7-.3-4.3-.9-4.3-3 0-2 1.7-3.1 4.4-3.1 3.1 0 4.7 1.1 4.9 3.4 0 .1 0 .2-.1.2-.1.1-.1.1-.2.1h-1.3c-.1 0-.2-.1-.3-.2-.3-1.4-1-1.8-3-1.8-2.2 0-2.5.8-2.5 1.4 0 .7.3.9 3.3 1.3s4.4 1 4.4 3.1c0 2.2-1.7 3.4-4.8 3.4z"/><path fill-rule="evenodd" clip-rule="evenodd" fill="#80BD01" d="M129.3 100.9h.2l2 1.1c.1 0 .1.1.1.2v2.3c0 .1 0 .2-.1.2l-2 1.1h-.2l-2-1.1c-.1 0-.1-.1-.1-.2v-2.3c0-.1 0-.2.1-.2l2-1.1z"/><path fill="#80BD01" d="M179 93.3c0 1-.8 1.9-1.9 1.9-1 0-1.9-.8-1.9-1.9 0-1.1.9-1.9 1.9-1.9 1 0 1.9.8 1.9 1.9zm-3.5 0c0 .9.7 1.6 1.6 1.6.9 0 1.6-.7 1.6-1.6 0-.9-.7-1.6-1.6-1.6-.8 0-1.6.7-1.6 1.6zm.9-1.1h.7c.2 0 .7 0 .7.6 0 .4-.2.5-.4.5.3 0 .3.2.3.5 0 .2.1.5.1.6h-.4l-.1-.7c0-.1-.1-.2-.2-.2h-.4v.8h-.4v-2.1zm.4.9h.3c.3 0 .3-.2.3-.3 0-.3-.2-.3-.3-.3h-.3v.6z"/></g></svg>