<?xml version="1.0" ?><svg id="Layer_1" style="enable-background:new 0 0 96 96;" version="1.1" viewBox="0 0 96 96" xml:space="preserve" xmlns="http://www.w3.org/2000/svg" xmlns:xlink="http://www.w3.org/1999/xlink"><style type="text/css">
	.st0{fill:none;stroke:#000000;stroke-width:4;stroke-miterlimit:10;}
</style><g><path d="M87,9v67.4L48.8,86.6c-0.1,0-0.4,0.1-0.8,0.1c-0.5,0-0.8,0-0.8-0.1L9,76.4V9h36.6h4.9H87 M90.6,3H50.4c-1.3,0-3.6,0-4.9,0   H5.4C4.1,3,3,4.1,3,5.4v73.1c0,1.3,1.1,2.7,2.4,3.1l40.3,10.7c0.7,0.2,1.5,0.3,2.4,0.3s1.7-0.1,2.4-0.3l40.3-10.7   c1.3-0.3,2.4-1.7,2.4-3.1V5.4C93,4.1,91.9,3,90.6,3L90.6,3z"/></g><line class="st0" x1="3" x2="93" y1="18" y2="18"/><g><path class="st0" d="M4,70l41.4,11.3c1.4,0.4,3.7,0.4,5.1,0L92,70"/></g><g><path d="M22,53l1.6-2.5c1.1,0.9,2.1,1.4,3.2,1.4c1.1,0,1.6-0.4,1.6-1.1c0-0.9-1.2-1.3-2.5-1.8c-1.5-0.6-3.2-1.7-3.2-3.9   c0-2.5,1.8-4.1,4.7-4.1c1.9,0,3.3,0.8,4.3,1.7L30,45c-0.9-0.7-1.7-1.1-2.6-1.1c-0.9,0-1.4,0.4-1.4,1c0,0.9,1.1,1.2,2.4,1.7   c1.6,0.6,3.3,1.5,3.3,4c0,2.4-1.7,4.3-5,4.3C25.1,54.8,23.2,54.1,22,53z"/><path d="M32.3,41h3.7l1.2,6.2c0.2,1.4,0.4,2.8,0.6,3.8H38c0.2-1,0.4-2.5,0.7-3.8l1.4-6.2h3.3l1.4,6.2c0.3,1.4,0.5,2.8,0.8,3.8h0.1   c0.2-1,0.4-2.5,0.6-3.8l1.2-6.2H51L48,55h-4.4l-1.2-6.2c-0.3-1.3-0.5-2.8-0.7-3.8h-0.1c-0.2,1-0.4,2.5-0.6,3.8L39.8,55h-4.3   L32.3,41z"/><path d="M52,37c0-1.2,0.8-2,2-2c1.2,0,2,0.8,2,2c0,1.2-0.8,2-2,2C52.8,39,52,38.2,52,37z M52,41h4v14h-4V41z"/><path d="M59,44h-1v-2.8l1,0v-0.9c0-2.9,1.4-5.3,4.8-5.3c1,0,2,0.3,2.6,0.5l-0.6,3c-0.4-0.2-0.9-0.3-1.3-0.3c-0.9,0-1.5,0.6-1.5,2   V41h4.2l0.4-4H70v4h3v3h-3v5.6c0,1.5,1,2.2,2,2.2c0.4,0,1-0.1,1.4-0.3l0.7,3c-0.7,0.2-1.5,0.5-2.7,0.5c-3.1,0-4.3-2.1-4.3-5.3V44   h-4v11h-4V44z"/></g></svg>