<?xml version="1.0" encoding="utf-8"?>
<!-- Generated by IcoMoon.io -->
<!DOCTYPE svg PUBLIC "-//W3C//DTD SVG 1.1//EN" "http://www.w3.org/Graphics/SVG/1.1/DTD/svg11.dtd">
<svg version="1.1" xmlns="http://www.w3.org/2000/svg" xmlns:xlink="http://www.w3.org/1999/xlink" width="32" height="32" viewBox="0 0 32 32">
<path fill="#444" d="M16 1.778c-7.854 0-14.222 6.368-14.222 14.222s6.368 14.222 14.222 14.222c7.854 0 14.222-6.368 14.222-14.222s-6.368-14.222-14.222-14.222zM16 28.448c-6.86 0-12.444-5.604-12.444-12.459 0-6.853 5.584-12.43 12.444-12.43s12.444 5.577 12.444 12.43c0 6.855-5.584 12.459-12.444 12.459z"></path>
<path fill="#444" d="M22.725 15.111h-11.076l3.876-4.158c0.332-0.361 0.308-0.924-0.053-1.255-0.364-0.334-0.926-0.309-1.257 0.053l-5.79 6.21-0.039 0.036 0.004 0.004-0.004 0.002 0.039 0.036 5.788 6.21c0.332 0.364 0.894 0.389 1.259 0.055 0.361-0.334 0.386-0.896 0.053-1.257l-3.876-4.156h11.076c0.489 0 0.889-0.398 0.889-0.889s-0.398-0.889-0.889-0.889z"></path>
</svg>
