<?xml version="1.0" standalone="no"?><!DOCTYPE svg PUBLIC "-//W3C//DTD SVG 1.1//EN" "http://www.w3.org/Graphics/SVG/1.1/DTD/svg11.dtd"><svg t="1482388425945" class="icon" style="" viewBox="0 0 1024 1024" version="1.1" xmlns="http://www.w3.org/2000/svg" p-id="2002" xmlns:xlink="http://www.w3.org/1999/xlink" width="200" height="200"><defs><style type="text/css"></style></defs><path d="M669.356352 66.223261l0 890.172015 254.352989 0L923.709341 66.223261 669.356352 66.223261zM705.622324 137.065725l181.823092 0 0 134.458341L705.622324 271.524067 705.622324 137.065725zM704.801632 312.778656l90.736561 0 0 44.310182-90.736561 0L704.801632 312.778656zM704.801632 395.636782l90.736561 0 0 44.310182-90.736561 0L704.801632 395.636782zM704.801632 477.466486l90.736561 0 0 44.311205-90.736561 0L704.801632 477.466486zM796.531823 884.668675c-51.196009 0-92.699262-41.502229-92.699262-92.700285 0-51.197032 41.503253-92.699262 92.699262-92.699262 51.198056 0 92.700285 41.502229 92.700285 92.699262C889.231085 843.166445 847.729879 884.668675 796.531823 884.668675z" p-id="2003" fill="#2c2c2c"></path><path d="M796.532847 791.96225m-65.534576 0a64.042 64.042 0 1 0 131.069151 0 64.042 64.042 0 1 0-131.069151 0Z" p-id="2004" fill="#2c2c2c"></path><path d="M383.662565 66.223261l0 890.172015 254.364245 0L638.02681 66.223261 383.662565 66.223261zM419.92649 137.065725l181.836395 0 0 134.458341L419.92649 271.524067 419.92649 137.065725zM419.106822 312.778656l90.7427 0 0 44.310182-90.7427 0L419.106822 312.778656zM419.106822 395.636782l90.7427 0 0 44.310182-90.7427 0L419.106822 395.636782zM419.106822 477.466486l90.7427 0 0 44.311205-90.7427 0L419.106822 477.466486zM510.844176 884.668675c-51.204196 0-92.706425-41.502229-92.706425-92.700285 0-51.197032 41.503253-92.699262 92.706425-92.699262 51.203172 0 92.705402 41.502229 92.705402 92.699262C603.549577 843.166445 562.047348 884.668675 510.844176 884.668675z" p-id="2005" fill="#2c2c2c"></path><path d="M576.385914 791.96225c0 36.19434-29.341259 65.534576-65.540715 65.534576-36.201503 0-65.541739-29.340235-65.541739-65.534576 0-36.193317 29.340235-65.534576 65.541739-65.534576C547.044656 726.427674 576.385914 755.768933 576.385914 791.96225z" p-id="2006" fill="#2c2c2c"></path><path d="M96.905562 66.223261l0 890.172015 254.351965 0L351.257527 66.223261 96.905562 66.223261zM133.169487 137.065725l181.824115 0 0 134.458341L133.169487 271.524067 133.169487 137.065725zM132.348796 312.778656l90.736561 0 0 44.310182-90.736561 0L132.348796 312.778656zM132.348796 395.636782l90.736561 0 0 44.310182-90.736561 0L132.348796 395.636782zM132.348796 477.466486l90.736561 0 0 44.311205-90.736561 0L132.348796 477.466486zM224.08001 884.668675c-51.197032 0-92.699262-41.502229-92.699262-92.700285 0-51.197032 41.503253-92.699262 92.699262-92.699262 51.197032 0 92.699262 41.502229 92.699262 92.699262C316.778248 843.166445 275.277042 884.668675 224.08001 884.668675z" p-id="2007" fill="#2c2c2c"></path><path d="M224.081033 791.96225m-65.534576 0a64.042 64.042 0 1 0 131.069151 0 64.042 64.042 0 1 0-131.069151 0Z" p-id="2008" fill="#2c2c2c"></path></svg>