<?xml version="1.0" encoding="utf-8"?>
<!-- Generated by IcoMoon.io -->
<!DOCTYPE svg PUBLIC "-//W3C//DTD SVG 1.1//EN" "http://www.w3.org/Graphics/SVG/1.1/DTD/svg11.dtd">
<svg version="1.1" xmlns="http://www.w3.org/2000/svg" xmlns:xlink="http://www.w3.org/1999/xlink" width="1024" height="1024" viewBox="0 0 1024 1024">
<g id="icomoon-ignore">
</g>
<path fill="#ffe1b2" d="M669.356 66.223v890.172h254.353v-890.172h-254.353zM705.622 137.066h181.823v134.458h-181.823v-134.458zM704.802 312.779h90.737v44.31h-90.737v-44.31zM704.802 395.637h90.737v44.31h-90.737v-44.31zM704.802 477.466h90.737v44.311h-90.737v-44.311zM796.532 884.669c-51.196 0-92.699-41.502-92.699-92.7 0-51.197 41.503-92.699 92.699-92.699 51.198 0 92.7 41.502 92.7 92.699s-41.502 92.7-92.7 92.7z"></path>
<path fill="#ffe1b2" d="M383.663 66.223v890.172h254.364v-890.172h-254.364zM419.926 137.066h181.836v134.458h-181.836v-134.458zM419.107 312.779h90.743v44.31h-90.743v-44.31zM419.107 395.637h90.743v44.31h-90.743v-44.31zM419.107 477.466h90.743v44.311h-90.743v-44.311zM510.844 884.669c-51.204 0-92.706-41.502-92.706-92.7s41.503-92.699 92.706-92.699 92.705 41.502 92.705 92.699c0 51.198-41.502 92.7-92.705 92.7z"></path>
<path fill="#ffe1b2" d="M730.998 791.962c0 36.194 29.341 65.535 65.535 65.535s65.535-29.341 65.535-65.535c0-36.194-29.341-65.535-65.535-65.535s-65.535 29.341-65.535 65.535z"></path>
<path fill="#ffe1b2" d="M576.386 791.962c0 36.194-29.341 65.535-65.541 65.535-36.202 0-65.542-29.34-65.542-65.535 0-36.193 29.34-65.535 65.542-65.535 36.199 0 65.541 29.341 65.541 65.535z"></path>
<path fill="#ffe1b2" d="M96.906 66.223v890.172h254.352v-890.172h-254.352zM133.169 137.066h181.824v134.458h-181.824v-134.458zM132.349 312.779h90.737v44.31h-90.737v-44.31zM132.349 395.637h90.737v44.31h-90.737v-44.31zM132.349 477.466h90.737v44.311h-90.737v-44.311zM224.080 884.669c-51.197 0-92.699-41.502-92.699-92.7 0-51.197 41.503-92.699 92.699-92.699s92.699 41.502 92.699 92.699c-0.001 51.198-41.502 92.7-92.699 92.7z"></path>
<path fill="#ffe1b2" d="M158.546 791.962c0 36.194 29.341 65.535 65.535 65.535s65.535-29.341 65.535-65.535c0-36.194-29.341-65.535-65.535-65.535s-65.535 29.341-65.535 65.535z"></path>
</svg>
