<?xml version="1.0" standalone="no"?><!DOCTYPE svg PUBLIC "-//W3C//DTD SVG 1.1//EN" "http://www.w3.org/Graphics/SVG/1.1/DTD/svg11.dtd"><svg class="icon" style="" viewBox="0 0 1024 1024" version="1.1" xmlns="http://www.w3.org/2000/svg" p-id="1933" xmlns:xlink="http://www.w3.org/1999/xlink" width="200" height="200"><defs><style type="text/css"><![CDATA[

]]></style></defs><path d="M509.179345 502.802618l-82.087564-67.770182c-6.441891-5.380655-14.848-7.875491-23.254109-7.093527-8.415418 0.791273-16.020945 4.989673-21.420218 11.552582L195.500218 671.3344l-85.9136 0L109.586618 166.539636l804.817455 0 0 504.785455L479.622982 671.325091c-17.463855 0-31.529891 14.066036-31.529891 31.520582L448.093091 857.460364 262.888727 857.460364c-17.463855 0-31.529891 14.066036-31.529891 31.529891 0 17.463855 14.066036 31.529891 31.529891 31.529891l423.870836 0c17.463855 0 31.529891-14.066036 31.529891-31.529891 0-17.463855-14.066036-31.529891-31.529891-31.529891L511.152873 857.460364 511.152873 734.384873l434.771782 0c17.482473 0 31.529891-14.047418 31.529891-31.529891L977.454545 135.009745c0.130327-17.482473-14.047418-31.529891-31.380945-31.529891L78.066036 103.479855C60.592873 103.479855 46.545455 117.545891 46.545455 135.009745l0 567.835927c0 17.482473 14.047418 31.529891 31.520582 31.529891l132.412509 0c9.588364 0 18.525091-4.328727 24.576-11.682909l176.397964-218.707782 80.514327 66.466909c12.883782 10.630982 31.799855 9.3184 43.231418-2.885818L691.758545 398.6432c15.238982 9.3184 33.103127 14.568727 52.279855 14.568727 55.565964 0 100.882618-45.177018 100.882618-100.882618 0-55.686982-45.195636-100.882618-100.882618-100.882618-55.565964 0-100.882618 45.195636-100.882618 100.882618 0 13.395782 2.634473 26.270255 7.4752 37.962473M744.0384 274.385455c20.8896 0 37.832145 16.942545 37.832145 37.822836 0 20.8896-16.951855 37.832145-37.832145 37.832145s-37.832145-16.942545-37.832145-37.832145C706.206255 291.328 723.158109 274.385455 744.0384 274.385455z" p-id="1934"></path></svg>