<?xml version="1.0" encoding="utf-8"?>
<!-- Generator: Adobe Illustrator 15.0.0, SVG Export Plug-In . SVG Version: 6.00 Build 0)  -->
<!DOCTYPE svg PUBLIC "-//W3C//DTD SVG 1.1//EN" "http://www.w3.org/Graphics/SVG/1.1/DTD/svg11.dtd">
<svg version="1.1" id="图层_1" xmlns="http://www.w3.org/2000/svg" xmlns:xlink="http://www.w3.org/1999/xlink" x="0px" y="0px"
	 width="16px" height="16px" viewBox="0 0 16 16" enable-background="new 0 0 16 16" xml:space="preserve">
<rect x="0.971" y="0.531" fill="none" width="14.059" height="14.938"/>
<g>
	<path fill="#272636" d="M12.089,2.814l0.004-0.006L11.27,2.267c-0.225-0.147-0.527-0.08-0.678,0.151
		c-0.152,0.229-0.094,0.533,0.129,0.68l0.498,0.329C12.889,4.492,14,6.356,14,8.484c0,3.313-2.687,6-6,6s-6-2.687-6-6
		C2,6.37,3.097,4.514,4.75,3.445V3.438l0.515-0.354c0.22-0.15,0.272-0.456,0.115-0.683C5.226,2.175,4.922,2.113,4.699,2.265
		L3.888,2.823l0.003,0.004C2.141,4.1,1,6.156,1,8.484c0,3.866,3.134,7,7,7s7-3.134,7-7C15,6.146,13.85,4.085,12.089,2.814z"/>
	<path fill="#272636" d="M8,8.547c0.275,0,0.498-0.216,0.498-0.482V0.998c0-0.267-0.223-0.482-0.498-0.482
		c-0.274,0-0.497,0.216-0.498,0.482v7.066C7.503,8.331,7.726,8.547,8,8.547z"/>
</g>
</svg>
