<?xml version="1.0" encoding="utf-8"?>
<!-- Generator: Adobe Illustrator 15.0.0, SVG Export Plug-In . SVG Version: 6.00 Build 0)  -->
<!DOCTYPE svg PUBLIC "-//W3C//DTD SVG 1.1//EN" "http://www.w3.org/Graphics/SVG/1.1/DTD/svg11.dtd">
<svg version="1.1" id="图层_1" xmlns="http://www.w3.org/2000/svg" xmlns:xlink="http://www.w3.org/1999/xlink" x="0px" y="0px"
	 width="18px" height="18px" viewBox="0 0 18 18" enable-background="new 0 0 18 18" xml:space="preserve">
<path display="none" fill="#020202" d="M28.042,15.208c-4.419,0-8,3.582-8,8s3.581,8,8,8c4.418,0,8-3.582,8-8
	S32.46,15.208,28.042,15.208z M28.042,30.21c-3.859,0-7-3.152-7-7.008s3.141-6.992,7-6.992s7,3.137,7,6.992
	S31.901,30.21,28.042,30.21z M31.644,22.811h-6.531l2.377-2.55c0.156-0.156,0.156-0.41,0-0.566s-0.409-0.156-0.564,0l-3.262,3.524
	l3.211,3.549c0.078,0.078,0.181,0.117,0.283,0.117c0.102,0,0.204-0.039,0.282-0.117c0.156-0.155,0.156-0.409,0-0.565l-2.353-2.592
	h6.557c0.221,0,0.4-0.18,0.4-0.4S31.864,22.811,31.644,22.811z"/>
<g>
	<path fill="#020202" d="M9,1C4.582,1,1,4.582,1,9c0,4.418,3.582,8,8,8c4.418,0,8-3.582,8-8C17,4.582,13.418,1,9,1z M9,16.002
		c-3.859,0-7-3.152-7-7.008c0-3.855,3.141-6.992,7-6.992c3.859,0,7,3.137,7,6.992C16,12.85,12.859,16.002,9,16.002z"/>
	<path fill="#020202" d="M12.783,8.5h-6.23l2.18-2.339c0.187-0.203,0.173-0.52-0.03-0.706c-0.205-0.188-0.521-0.174-0.707,0.03
		L4.739,8.978l-0.022,0.02L4.719,9L4.717,9.001l0.022,0.02l3.256,3.493c0.187,0.205,0.503,0.219,0.708,0.031
		c0.203-0.188,0.217-0.504,0.03-0.707L6.553,9.5h6.23c0.275,0,0.5-0.224,0.5-0.5S13.059,8.5,12.783,8.5z"/>
</g>
</svg>
