<?xml version="1.0" encoding="utf-8"?>
<!-- Generator: Adobe Illustrator 15.0.0, SVG Export Plug-In . SVG Version: 6.00 Build 0)  -->
<!DOCTYPE svg PUBLIC "-//W3C//DTD SVG 1.1//EN" "http://www.w3.org/Graphics/SVG/1.1/DTD/svg11.dtd">
<svg version="1.1" id="图层_1" xmlns="http://www.w3.org/2000/svg" xmlns:xlink="http://www.w3.org/1999/xlink" x="0px" y="0px"
	 width="18px" height="18px" viewBox="0 0 18 18" enable-background="new 0 0 18 18" xml:space="preserve">
<path display="none" fill="#020202" d="M28.042,15.208c-4.419,0-8,3.582-8,8s3.581,8,8,8c4.418,0,8-3.582,8-8
	S32.46,15.208,28.042,15.208z M28.042,30.21c-3.858,0-7-3.151-7-7.008s3.142-6.992,7-6.992s7,3.138,7,6.992S31.9,30.21,28.042,30.21
	z M31.645,22.811h-6.531l2.377-2.55c0.156-0.155,0.156-0.409,0-0.565s-0.409-0.156-0.564,0l-3.262,3.523l3.211,3.549
	c0.078,0.078,0.182,0.117,0.283,0.117s0.203-0.039,0.281-0.117c0.156-0.154,0.156-0.408,0-0.564l-2.353-2.592h6.558
	c0.221,0,0.399-0.18,0.399-0.4C32.044,22.991,31.864,22.811,31.645,22.811z"/>
<g>
	<path fill="#020202" d="M9,3c3.309,0,6,2.691,6,6s-2.691,6-6,6s-6-2.691-6-6S5.691,3,9,3 M9,2C5.134,2,2,5.134,2,9s3.134,7,7,7
		s7-3.134,7-7S12.866,2,9,2L9,2z"/>
</g>
</svg>
