<?xml version="1.0" encoding="utf-8"?>
<!-- Generator: Adobe Illustrator 15.0.0, SVG Export Plug-In . SVG Version: 6.00 Build 0)  -->
<!DOCTYPE svg PUBLIC "-//W3C//DTD SVG 1.1//EN" "http://www.w3.org/Graphics/SVG/1.1/DTD/svg11.dtd">
<svg version="1.1" id="图层_1" xmlns="http://www.w3.org/2000/svg" xmlns:xlink="http://www.w3.org/1999/xlink" x="0px" y="0px"
	 width="22px" height="22px" viewBox="-2 -2 22 22" enable-background="new -2 -2 22 22" xml:space="preserve">
<path display="none" fill="#020202" d="M28.042,15.208c-4.419,0-8,3.582-8,8s3.581,8,8,8c4.418,0,8-3.582,8-8
	S32.46,15.208,28.042,15.208z M28.042,30.21c-3.858,0-7-3.151-7-7.008s3.142-6.992,7-6.992s7,3.138,7,6.992S31.9,30.21,28.042,30.21
	z M31.645,22.811h-6.531l2.377-2.55c0.156-0.155,0.156-0.409,0-0.565s-0.409-0.156-0.564,0l-3.262,3.523l3.211,3.549
	c0.078,0.078,0.182,0.117,0.283,0.117s0.203-0.039,0.281-0.117c0.156-0.154,0.156-0.408,0-0.564l-2.353-2.592h6.558
	c0.221,0,0.399-0.18,0.399-0.4C32.044,22.991,31.864,22.811,31.645,22.811z"/>
<g>
	<g>
		<g>
			<path fill="#020202" d="M9.001,0.001C13.963,0.001,18,4.037,18,8.998C18,13.962,13.963,18,9.001,18c-4.962,0-9-4.038-9-9.002
				C0.001,4.037,4.039,0.001,9.001,0.001 M9.001-1.999c-6.074,0-11,4.924-11,10.997c0,6.075,4.926,11.002,11,11.002
				C15.076,20,20,15.073,20,8.998C20,2.925,15.076-1.999,9.001-1.999L9.001-1.999z"/>
		</g>
	</g>
	<polygon fill="#070707" points="14.001,8 10.001,8 10.001,4 8,4 8,8 4,8 4,10.001 8,10.001 8,14.001 10.001,14.001 10.001,10.001 
		14.001,10.001 	"/>
</g>
</svg>
