<?xml version="1.0" encoding="utf-8"?>
<!-- Generator: Adobe Illustrator 15.0.0, SVG Export Plug-In . SVG Version: 6.00 Build 0)  -->
<!DOCTYPE svg PUBLIC "-//W3C//DTD SVG 1.1//EN" "http://www.w3.org/Graphics/SVG/1.1/DTD/svg11.dtd">
<svg version="1.1" id="图层_1" xmlns="http://www.w3.org/2000/svg" xmlns:xlink="http://www.w3.org/1999/xlink" x="0px" y="0px"
	 width="20px" height="20px" viewBox="0 0 20 20" enable-background="new 0 0 20 20" xml:space="preserve">
<path fill="#050101" d="M10.408,7.25c-0.912-1.78-2.762-3-4.901-3C2.466,4.25,0,6.712,0,9.75c0,3.037,2.466,5.5,5.507,5.5
	c2.873,0,5.229-2.197,5.481-5H15v3h3v-3h2v-3H10.408z M5.505,12.242c-1.38,0-2.499-1.116-2.499-2.492
	c0-1.377,1.119-2.492,2.499-2.492c1.38,0,2.499,1.115,2.499,2.492C8.004,11.126,6.885,12.242,5.505,12.242z"/>
</svg>
