<?xml version="1.0" encoding="utf-8"?>
<!-- Generator: Adobe Illustrator 15.0.0, SVG Export Plug-In . SVG Version: 6.00 Build 0)  -->
<!DOCTYPE svg PUBLIC "-//W3C//DTD SVG 1.1//EN" "http://www.w3.org/Graphics/SVG/1.1/DTD/svg11.dtd">
<svg version="1.1" id="图层_1" xmlns="http://www.w3.org/2000/svg" xmlns:xlink="http://www.w3.org/1999/xlink" x="0px" y="0px"
	 width="18px" height="18px" viewBox="0 0 18 18" enable-background="new 0 0 18 18" xml:space="preserve">
<image display="none" overflow="visible" enable-background="new    " width="17" height="17" xlink:href="6466BBD6.jpeg"  transform="matrix(1.0588 0 0 1.0588 -4.882813e-004 -4.882813e-004)">
</image>
<g display="none">
	<path display="inline" d="M15.75,4.235H2.25C1.008,4.235,0,5.184,0,6.353v9.53C0,17.052,1.008,18,2.25,18h13.5
		c1.243,0,2.25-0.948,2.25-2.117v-9.53C18,5.184,16.993,4.235,15.75,4.235z M16.875,15.883c0,0.585-0.504,1.059-1.125,1.059H2.25
		c-0.622,0-1.125-0.474-1.125-1.059v-9.53c0-0.585,0.503-1.059,1.125-1.059h13.5c0.621,0,1.125,0.474,1.125,1.059V15.883z"/>
	<rect x="2.25" y="2.118" display="inline" width="13.5" height="1.059"/>
	<rect x="4.5" display="inline" width="9" height="1.059"/>
</g>
<g display="none">
	<g display="inline">
		<path d="M9,0C5.134,0,2,3.134,2,7s3.134,7,7,7s7-3.134,7-7S12.866,0,9,0L9,0z M9,13.125c-3.383,0-6.125-2.742-6.125-6.125
			S5.617,0.875,9,0.875S15.125,3.617,15.125,7S12.383,13.125,9,13.125L9,13.125z"/>
	</g>
	<g display="inline">
		<path d="M9,3C6.791,3,5,4.791,5,7s1.791,4,4,4s4-1.791,4-4S11.209,3,9,3L9,3z M9,10.188c-1.761,0-3.188-1.427-3.188-3.188
			c0-1.76,1.427-3.188,3.188-3.188S12.188,5.24,12.188,7C12.188,8.761,10.761,10.188,9,10.188L9,10.188z"/>
	</g>
	<g display="inline">
		<path d="M15.172,12.999V13.8c1.195,0,1.746,2.033,1.943,3.4H9.582H8.437H0.889c0.198-1.318,0.749-3.4,1.973-3.4l0,0
			c0.832,0.021,1.002,0.211,1.34,0.593c0.678,0.767,1.431,1.399,3.795,1.407l1.013,0.003l1.008-0.003
			c2.357-0.008,3.11-0.642,3.787-1.407c0.338-0.382,0.508-0.572,1.338-0.593L15.172,12.999 M15.172,12.999
			c-0.016,0-0.031,0.001-0.048,0.001c-2.638,0.063-1.146,1.986-5.108,2c-0.373,0.001-0.706,0.002-1.007,0.003
			C8.708,15.002,8.375,15.001,8,15c-3.973-0.014-2.477-1.938-5.118-2c-0.016,0-0.032-0.001-0.048-0.001C0.237,12.999,0,18,0,18
			h8.437h1.146H18C18,18,17.764,12.999,15.172,12.999L15.172,12.999z"/>
	</g>
</g>
<g>
	<path d="M6.353,0H0c0,0,0,0.948,0,2.118v4.235c0,1.169,0.947,2.118,2.118,2.118h4.235c1.169,0,2.118,0,2.118,0V2.118
		C8.471,0.948,7.522,0,6.353,0z"/>
	<path d="M11.646,0c-1.17,0-2.117,0.948-2.117,2.118v6.353c0,0,0.947,0,2.117,0h4.235c1.17,0,2.118-0.949,2.118-2.118V2.118
		C18,0.948,18,0,18,0H11.646z"/>
	<path d="M2.118,9.529C0.947,9.529,0,10.479,0,11.646v4.235C0,17.052,0,18,0,18h6.353c1.169,0,2.118-0.948,2.118-2.117V9.529
		c0,0-0.948,0-2.118,0H2.118z"/>
	<path d="M15.883,9.529h-4.234c-1.17,0-2.119,0-2.119,0v6.354c0,1.169,0.949,2.117,2.119,2.117H18c0,0,0-0.948,0-2.117v-4.234
		C18,10.479,17.052,9.529,15.883,9.529z"/>
</g>
</svg>
