<?xml version="1.0" standalone="no"?><!DOCTYPE svg PUBLIC "-//W3C//DTD SVG 1.1//EN" "http://www.w3.org/Graphics/SVG/1.1/DTD/svg11.dtd"><svg class="icon" style="" viewBox="0 0 1024 1024" version="1.1" xmlns="http://www.w3.org/2000/svg" p-id="1826" xmlns:xlink="http://www.w3.org/1999/xlink" width="200" height="200"><defs><style type="text/css"><![CDATA[

]]></style></defs><path d="M897.700997 52.093023 126.299003 52.093023C56.770764 52.093023 0 108.651163 0 178.392027L0 667.641196c0 69.528239 56.55814 126.299003 126.299003 126.299003l356.996678 0 0 120.55814-177.966777 0c-15.946844 0-28.704319 12.757475-28.704319 28.704319s12.757475 28.704319 28.704319 28.704319L718.671096 971.906977c15.946844 0 28.704319-12.757475 28.704319-28.704319s-12.757475-28.704319-28.704319-28.704319l-177.966777 0 0-120.55814 356.996678 0c69.528239 0 126.299003-56.55814 126.299003-126.299003L1024 178.392027C1024 108.651163 967.44186 52.093023 897.700997 52.093023zM126.299003 109.501661l771.614618 0c37.847176 0 68.890365 30.830565 68.890365 68.890365l0 408.877076L57.408638 587.269103 57.408638 178.392027C57.408638 140.332226 88.239203 109.501661 126.299003 109.501661zM897.700997 736.531561 126.299003 736.531561C88.451827 736.531561 57.408638 705.700997 57.408638 667.641196l0-22.963455 909.182724 0L966.591362 667.641196C966.591362 705.488372 935.760797 736.531561 897.700997 736.531561z" p-id="1827"></path></svg>