<?xml version="1.0" encoding="utf-8"?>
<!-- Generator: Adobe Illustrator 15.0.0, SVG Export Plug-In . SVG Version: 6.00 Build 0)  -->
<!DOCTYPE svg PUBLIC "-//W3C//DTD SVG 1.1//EN" "http://www.w3.org/Graphics/SVG/1.1/DTD/svg11.dtd">
<svg version="1.1" id="图层_1" xmlns="http://www.w3.org/2000/svg" xmlns:xlink="http://www.w3.org/1999/xlink" x="0px" y="0px"
	 width="14px" height="14px" viewBox="0 0 14 14" enable-background="new 0 0 14 14" xml:space="preserve">
<g>
	<path fill="#050101" d="M11.281,7.674L7.35,13.807C7.271,13.927,7.143,14,7.004,14l0,0c-0.139,0-0.269-0.073-0.346-0.193
		L2.728,7.69C2.25,6.891,2,5.984,2,5.06C2,2.27,4.242,0,7,0c2.757,0,5,2.27,5,5.06C12,5.983,11.752,6.887,11.281,7.674L11.281,7.674
		L11.281,7.674z M7,0.986c-2.254,0-4.088,1.843-4.088,4.106c0,0.746,0.201,1.477,0.582,2.112l3.51,5.463l3.512-5.479
		c0.372-0.622,0.573-1.352,0.573-2.096C11.089,2.829,9.254,0.987,7,0.986L7,0.986L7,0.986z M7,7.447
		c-1.307,0-2.368-1.08-2.368-2.407c0-1.327,1.062-2.406,2.368-2.406c1.306,0,2.368,1.079,2.368,2.406S8.307,7.447,7,7.447L7,7.447
		L7,7.447z M7,3.618c-0.787,0-1.427,0.638-1.427,1.422c0,0.784,0.64,1.422,1.427,1.422s1.427-0.639,1.427-1.422
		C8.427,4.256,7.787,3.618,7,3.618L7,3.618z"/>
</g>
</svg>
