<?xml version="1.0" encoding="utf-8"?>
<!-- Generator: Adobe Illustrator 15.0.0, SVG Export Plug-In . SVG Version: 6.00 Build 0)  -->
<!DOCTYPE svg PUBLIC "-//W3C//DTD SVG 1.1//EN" "http://www.w3.org/Graphics/SVG/1.1/DTD/svg11.dtd">
<svg version="1.1" id="图层_1" xmlns="http://www.w3.org/2000/svg" xmlns:xlink="http://www.w3.org/1999/xlink" x="0px" y="0px"
	 width="18px" height="18px" viewBox="0 0 18 18" enable-background="new 0 0 18 18" xml:space="preserve">
<path display="none" fill="#020202" d="M28.042,15.208c-4.419,0-8,3.582-8,8s3.581,8,8,8c4.418,0,8-3.582,8-8
	S32.46,15.208,28.042,15.208z M28.042,30.21c-3.859,0-7-3.152-7-7.008s3.141-6.992,7-6.992s7,3.137,7,6.992
	S31.901,30.21,28.042,30.21z M31.644,22.811h-6.531l2.377-2.55c0.156-0.156,0.156-0.41,0-0.566s-0.409-0.156-0.564,0l-3.262,3.524
	l3.211,3.549c0.078,0.078,0.181,0.117,0.283,0.117c0.102,0,0.204-0.039,0.282-0.117c0.156-0.155,0.156-0.409,0-0.565l-2.353-2.592
	h6.557c0.221,0,0.4-0.18,0.4-0.4S31.864,22.811,31.644,22.811z"/>
<g>
	<path d="M9,6.501c-1.381,0-2.5,1.119-2.5,2.5C6.5,10.379,7.619,11.5,9,11.5c1.38,0,2.5-1.121,2.5-2.499
		C11.5,7.62,10.38,6.501,9,6.501z M9,10.5c-0.828,0-1.5-0.672-1.5-1.499c0-0.828,0.672-1.5,1.5-1.5s1.5,0.672,1.5,1.5
		C10.5,9.828,9.828,10.5,9,10.5z"/>
	<path d="M15.854,7.636c-0.076-0.398-0.314-0.656-0.607-0.648h-0.061c-1.004,0-1.819-0.815-1.819-1.817
		c0-0.33,0.155-0.692,0.157-0.694c0.154-0.349,0.035-0.775-0.277-0.995l-0.018-0.012l-1.75-0.971L11.46,2.49
		c-0.104-0.045-0.218-0.068-0.338-0.068c-0.249,0-0.493,0.099-0.653,0.265c-0.214,0.22-0.888,0.792-1.432,0.792
		c-0.549,0-1.227-0.583-1.441-0.807c-0.16-0.17-0.408-0.271-0.658-0.271c-0.119,0-0.229,0.022-0.332,0.065l-0.02,0.009L4.773,3.469
		L4.756,3.481C4.441,3.698,4.322,4.126,4.479,4.474c0,0.004,0.156,0.366,0.156,0.695c0,1.002-0.816,1.816-1.818,1.816H2.755
		c-0.293-0.006-0.532,0.25-0.608,0.649C2.141,7.668,2,8.417,2,9.006c0,0.59,0.141,1.338,0.146,1.369
		c0.075,0.395,0.31,0.65,0.597,0.65c0.004,0,0.008,0,0.012,0h0.062c1.002,0,1.818,0.814,1.818,1.816c0,0.33-0.156,0.693-0.156,0.695
		c-0.155,0.348-0.037,0.773,0.274,0.994l0.019,0.012l1.717,0.959l0.019,0.008c0.104,0.047,0.218,0.068,0.339,0.068
		c0.252,0,0.496-0.105,0.656-0.275c0.201-0.219,0.9-0.844,1.463-0.844c0.564,0,1.256,0.621,1.473,0.857
		c0.16,0.18,0.408,0.281,0.662,0.281c0.118,0,0.229-0.02,0.332-0.063l0.019-0.012l1.78-0.98l0.018-0.012
		c0.313-0.221,0.434-0.646,0.277-0.994c-0.002-0.002-0.157-0.365-0.157-0.695c0-1.002,0.815-1.816,1.819-1.816h0.061
		c0.293,0.006,0.531-0.25,0.607-0.65C15.859,10.344,16,9.597,16,9.006C16,8.417,15.859,7.668,15.854,7.636z M14.71,10.139
		c-1.315,0.068-2.366,1.16-2.366,2.49c0,0.445,0.174,0.873,0.211,0.959l-1.57,0.867h-0.002c-0.021,0-0.043-0.01-0.051-0.014
		c-0.029-0.031-0.256-0.275-0.584-0.516c-0.488-0.363-0.953-0.547-1.382-0.547c-0.425,0-0.886,0.18-1.372,0.535
		c-0.326,0.236-0.552,0.479-0.578,0.508c-0.01,0.004-0.029,0.014-0.052,0.014c-0.002,0-0.003,0-0.003,0l-1.516-0.848
		c0.037-0.084,0.211-0.512,0.211-0.959c0-1.33-1.049-2.422-2.365-2.49c-0.02-0.104-0.122-0.69-0.122-1.133
		c0-0.44,0.103-1.03,0.122-1.134c1.316-0.066,2.365-1.158,2.365-2.49c0-0.443-0.172-0.869-0.211-0.958l1.602-0.877
		c0.001,0,0.003,0,0.006,0c0.026,0,0.051,0.011,0.059,0.015c0.027,0.028,0.252,0.26,0.574,0.489C8.165,4.392,8.62,4.565,9.036,4.565
		c0.412,0,0.86-0.17,1.338-0.504c0.319-0.228,0.544-0.455,0.569-0.48c0.01-0.006,0.033-0.016,0.061-0.016c0.002,0,0.005,0,0.008,0
		l1.543,0.857c-0.037,0.087-0.211,0.514-0.211,0.959c0,1.332,1.051,2.424,2.366,2.49c0.021,0.105,0.122,0.693,0.122,1.134
		C14.832,9.448,14.729,10.034,14.71,10.139z"/>
</g>
</svg>
