<?xml version="1.0" encoding="utf-8"?>
<!-- Generator: Adobe Illustrator 15.0.0, SVG Export Plug-In . SVG Version: 6.00 Build 0)  -->
<!DOCTYPE svg PUBLIC "-//W3C//DTD SVG 1.1//EN" "http://www.w3.org/Graphics/SVG/1.1/DTD/svg11.dtd">
<svg version="1.1" id="图层_1" xmlns="http://www.w3.org/2000/svg" xmlns:xlink="http://www.w3.org/1999/xlink" x="0px" y="0px"
	 width="16px" height="16px" viewBox="0 0 16 16" enable-background="new 0 0 16 16" xml:space="preserve">
<rect x="0.971" y="0.531" fill="none" width="14.059" height="14.938"/>
<g>
	<path fill="#040000" d="M8.174,8.609c-0.578,0-1.047,0.469-1.047,1.044c0,0.363,0.186,0.688,0.469,0.871l0.002,2.144
		c0,0.156,0.056,0.291,0.169,0.401c0.113,0.113,0.248,0.167,0.407,0.167c0.156,0,0.291-0.054,0.404-0.167
		c0.113-0.11,0.169-0.245,0.169-0.401l-0.005-2.137c0.287-0.186,0.478-0.508,0.478-0.878C9.22,9.078,8.752,8.609,8.174,8.609"/>
	<path fill="#040000" d="M14.606,6.257c-0.284-0.285-0.627-0.426-1.028-0.426h-1.053c0.123-0.406,0.21-0.828,0.21-1.275
		c0-2.534-2.055-4.589-4.589-4.589S3.558,2.021,3.558,4.556c0,0.447,0.087,0.869,0.21,1.275H2.715c-0.401,0-0.742,0.141-1.027,0.426
		C1.405,6.539,1.263,6.882,1.263,7.281v4.113v0.503v2.687c0,0.401,0.143,0.741,0.426,1.025c0.285,0.282,0.625,0.425,1.027,0.425
		h7.441h1.231h2.19c0.401,0,0.743-0.143,1.027-0.425c0.283-0.283,0.424-0.624,0.424-1.025v-3.439V9.068V7.281
		C15.03,6.882,14.891,6.539,14.606,6.257z M8.146,1.114c1.9,0,3.441,1.541,3.441,3.441c0,0.449-0.104,0.866-0.262,1.26H4.967
		c-0.157-0.393-0.263-0.81-0.263-1.26C4.705,2.656,6.245,1.114,8.146,1.114z M13.883,9.068v5.198c0,0.134-0.046,0.383-0.143,0.479
		c-0.094,0.093-0.209,0.141-0.342,0.141h-2.011l-8.494,0.005c-0.133,0-0.248-0.05-0.342-0.142C2.457,14.653,2.41,14.404,2.41,14.27
		v-2.368V7.458c0-0.132,0.047-0.246,0.142-0.34c0.095-0.097,0.209-0.141,0.342-0.141l1.113-0.004h0.628h0.009H5.64h5.025h1.002H13.4
		c0.131,0,0.247,0.047,0.342,0.141c0.096,0.094,0.142,0.208,0.142,0.343L13.883,9.068L13.883,9.068z"/>
</g>
</svg>
