<?xml version="1.0" standalone="no"?><!DOCTYPE svg PUBLIC "-//W3C//DTD SVG 1.1//EN" "http://www.w3.org/Graphics/SVG/1.1/DTD/svg11.dtd"><svg class="icon" style="" viewBox="0 0 1024 1024" version="1.1" xmlns="http://www.w3.org/2000/svg" p-id="18245" xmlns:xlink="http://www.w3.org/1999/xlink" width="200" height="200"><defs><style type="text/css"><![CDATA[

]]></style></defs><path d="M906.648268 778.632663l-77.330226 0-71.441099-114.305349c49.38578-17.745153 84.773755-64.8551 84.773755-120.352065 0-70.689992-57.30617-127.995139-127.995139-127.995139-70.689992 0-127.995139 57.305147-127.995139 127.995139 0 55.495942 35.386952 102.605889 84.773755 120.352065l-71.440076 114.305349-77.331249 0c-23.563672 0-42.664705 19.101033-42.664705 42.664705l0 127.995139c0 23.563672 19.101033 42.664705 42.664705 42.664705l383.984395 0c23.562649 0 42.664705-19.101033 42.664705-42.664705l0-127.995139C949.312974 797.733697 930.210917 778.632663 906.648268 778.632663zM642.660852 778.632663l66.824965-106.924241c1.729387 0.068562 3.423983 0.261966 5.170766 0.261966s3.441379-0.192382 5.170766-0.261966l66.823941 106.924241L642.660852 778.632663zM525.634532 637.351939c-15.431457-27.650757-24.303522-59.461253-24.303522-93.376691 0-106.036012 85.955674-191.991686 191.991686-191.991686 60.349483 0 114.128317 27.89635 149.324934 71.437006L842.647629 121.595382c0-49.481971-40.325427-89.597621-90.070388-89.597621L164.756391 31.997762c-49.744961 0-90.070388 40.11565-90.070388 89.597621l0 738.103598c0 49.475831 40.325427 89.591481 90.070388 89.591481l229.912343 0L394.668735 757.299799c0-23.563672 19.101033-42.664705 42.664705-42.664705l40.000016 0L525.634532 637.351939zM181.345208 223.989447l469.313805 0 0 42.664705L181.345208 266.654152 181.345208 223.989447zM479.999169 437.312974 181.345208 437.312974l0-42.664705 298.653961 0L479.999169 437.312974z" p-id="18246"></path></svg>