<?xml version="1.0" encoding="utf-8"?>
<!-- Generator: Adobe Illustrator 15.0.0, SVG Export Plug-In . SVG Version: 6.00 Build 0)  -->
<!DOCTYPE svg PUBLIC "-//W3C//DTD SVG 1.1//EN" "http://www.w3.org/Graphics/SVG/1.1/DTD/svg11.dtd">
<svg version="1.1" id="图层_1" xmlns="http://www.w3.org/2000/svg" xmlns:xlink="http://www.w3.org/1999/xlink" x="0px" y="0px"
	 width="18px" height="18px" viewBox="0 0 18 18" enable-background="new 0 0 18 18" xml:space="preserve">
<image display="none" overflow="visible" enable-background="new    " width="17" height="17" xlink:href="18924EB4.jpeg"  transform="matrix(1.0588 0 0 1.0588 -4.882813e-004 -4.882813e-004)">
</image>
<g display="none">
	<path display="inline" d="M15.75,4.235H2.25C1.008,4.235,0,5.184,0,6.353v9.53C0,17.052,1.008,18,2.25,18h13.5
		c1.243,0,2.25-0.948,2.25-2.117v-9.53C18,5.184,16.993,4.235,15.75,4.235z M16.875,15.883c0,0.585-0.504,1.059-1.125,1.059H2.25
		c-0.622,0-1.125-0.474-1.125-1.059v-9.53c0-0.585,0.503-1.059,1.125-1.059h13.5c0.621,0,1.125,0.474,1.125,1.059V15.883z"/>
	<rect x="2.25" y="2.118" display="inline" width="13.5" height="1.059"/>
	<rect x="4.5" display="inline" width="9" height="1.059"/>
</g>
<path d="M9,0C5.134,0,2,3.134,2,7s3.134,7,7,7s7-3.134,7-7S12.866,0,9,0z M9,10.188c-1.761,0-3.188-1.427-3.188-3.188
	c0-1.76,1.427-3.188,3.188-3.188S12.188,5.24,12.188,7C12.188,8.761,10.761,10.188,9,10.188z"/>
<g>
	<path d="M15.172,12.999 M15.172,12.999 M15.172,12.999c-0.016,0-0.031,0.001-0.048,0.001c-2.638,0.063-1.146,1.986-5.108,2
		c-0.373,0.001-0.706,0.002-1.007,0.003C8.708,15.002,8.375,15.001,8,15c-3.973-0.014-2.477-1.938-5.118-2
		c-0.016,0-0.032-0.001-0.048-0.001C0.237,12.999,0,18,0,18h8.437h1.146H18C18,18,17.764,12.999,15.172,12.999L15.172,12.999z"/>
</g>
</svg>
