<?xml version="1.0" standalone="no"?><!DOCTYPE svg PUBLIC "-//W3C//DTD SVG 1.1//EN" "http://www.w3.org/Graphics/SVG/1.1/DTD/svg11.dtd"><svg class="icon" style="" viewBox="0 0 1024 1024" version="1.1" xmlns="http://www.w3.org/2000/svg" p-id="18352" xmlns:xlink="http://www.w3.org/1999/xlink" width="200" height="200"><defs><style type="text/css"><![CDATA[

]]></style></defs><path d="M650.659013 223.989447 181.345208 223.989447l0 42.664705 469.313805 0L650.659013 223.989447zM906.648268 778.632663l-77.330226 0-71.441099-114.305349c49.38578-17.745153 84.773755-64.8551 84.773755-120.352065 0-70.689992-57.30617-127.995139-127.994116-127.995139-70.689992 0-127.995139 57.305147-127.995139 127.995139 0 55.495942 35.386952 102.605889 84.773755 120.352065l-71.440076 114.305349-77.331249 0c-23.563672 0-42.664705 19.101033-42.664705 42.664705l0 127.995139c0 23.563672 19.101033 42.664705 42.664705 42.664705l383.984395 0c23.562649 0 42.664705-19.101033 42.664705-42.664705l0-127.995139C949.313997 797.733697 930.21194 778.632663 906.648268 778.632663zM629.327172 543.976272c0-47.125297 38.204114-85.329411 85.329411-85.329411 47.125297 0 85.329411 38.204114 85.329411 85.329411 0 47.116087-38.189787 85.312014-85.303828 85.327364l-0.052189 0C667.51696 629.287263 629.327172 591.092359 629.327172 543.976272zM709.48684 671.708422c1.729387 0.068562 3.423983 0.261966 5.170766 0.261966 1.74576 0 3.441379-0.192382 5.170766-0.261966l66.823941 106.924241L642.660852 778.632663 709.48684 671.708422zM906.648268 927.959643c0 11.782348-9.550517 21.332864-21.332864 21.332864L543.996738 949.292508c-11.782348 0-21.332864-9.550517-21.332864-21.332864l0-85.329411c0-11.782348 9.550517-21.332864 21.332864-21.332864l341.318666 0c11.782348 0 21.332864 9.550517 21.332864 21.332864L906.648268 927.959643zM117.349685 861.588003 117.349685 119.699196c0-24.870434 20.295232-45.036729 45.331441-45.036729l591.972403 0c25.03314 0 45.328371 20.167319 45.328371 45.036729l0 253.617232 42.664705 0L842.646606 121.595382c0-49.481971-40.325427-89.597621-90.070388-89.597621L164.756391 31.997762c-49.744961 0-90.070388 40.11565-90.070388 89.597621l0 738.103598c0 49.475831 40.325427 89.591481 90.070388 89.591481l251.246231 0 0-42.664705L162.681126 906.625756C137.644917 906.624732 117.349685 886.461507 117.349685 861.588003zM181.345208 437.313997l298.653961 0 0-42.664705L181.345208 394.649292 181.345208 437.313997z" p-id="18353"></path></svg>