<?xml version="1.0" standalone="no"?><!DOCTYPE svg PUBLIC "-//W3C//DTD SVG 1.1//EN" "http://www.w3.org/Graphics/SVG/1.1/DTD/svg11.dtd"><svg class="icon" style="" viewBox="0 0 1024 1024" version="1.1" xmlns="http://www.w3.org/2000/svg" p-id="27288" xmlns:xlink="http://www.w3.org/1999/xlink" width="200" height="200"><defs><style type="text/css"><![CDATA[

]]></style></defs><path d="M1024 320c0 0 0 92.928 0 128 0 42.56-9.6 69.632-32 96L992 896c0 70.656-61.12 128-134.08 128L164.992 1024c-72.896 0-132.032-57.344-132.032-128L32 544C12.224 519.296 0 482.112 0 448c0-18.24 0-128 0-128l185.984-320 650.944 0L1024 320M96.064 896c0 35.392 32.448 64 68.928 64l692.928 0c36.416 0 70.08-28.608 70.08-64l0-64L96.064 832 96.064 896zM96.064 768 928 768 928 576c-8.192 1.472-54.656 0-64 0-60.608 0-84.032-34.368-113.088-82.368C726.144 541.184 677.056 576 629.696 576 581.952 576 529.408 545.984 511.488 505.088 493.504 547.008 439.872 576 391.104 576c-46.144 0-94.464-32-120.32-77.568C247.744 545.344 193.216 576 158.848 576 142.016 576 114.496 576 96 576L96.064 768zM960 448c-0.512 44.16-51.392 64-96 64-51.456 0-97.728-31.168-97.728-64L736 448c0 32.256-57.344 64-106.624 64-47.36 0-102.4-32.704-102.4-64L496 448c0 32.256-56 64-103.296 64C343.296 512 286.976 489.28 286.976 448L256.704 448c0 32.192-49.408 65.024-96.832 65.024C111.744 513.024 64 492.16 64 448L64 384l896 0L960 448zM961.984 320l-1.088 0-152.256-256L214.4 64 65.28 320 961.984 320 961.984 320z" p-id="27289"></path></svg>