<?xml version="1.0" standalone="no"?><!DOCTYPE svg PUBLIC "-//W3C//DTD SVG 1.1//EN" "http://www.w3.org/Graphics/SVG/1.1/DTD/svg11.dtd"><svg class="icon" style="" viewBox="0 0 1024 1024" version="1.1" xmlns="http://www.w3.org/2000/svg" p-id="1663" xmlns:xlink="http://www.w3.org/1999/xlink" width="200" height="200"><defs><style type="text/css"><![CDATA[

]]></style></defs><path d="M1012.546 324.108c0 0 0 90.001 0 124.283 0 41.651-8.351 69.146-30.277 94.926l0 344.467c0 69.175-59.851 125.261-131.199 125.261L172.931 1013.045c-71.349 0-129.181-56.086-129.181-125.261l-0.948-344.467c-19.359-24.129-31.348-60.582-31.348-93.946 0-17.829 0.245-49.022 0.795-62.631l-0.795-62.632L193.482 10.956l637.036 0L1012.546 324.108M105.497 887.783c0 34.588 31.745 62.631 67.434 62.631l678.138 0c35.689 0 69.452-28.043 69.452-62.631l0-62.631L105.497 825.152 105.497 887.783zM105.497 762.523l815.024 0L920.521 572.092c-8.012 1.499-24.648 2.54-33.823 2.54-59.301 0-111.934-33.641-140.344-80.612-24.283 46.546-72.298 80.612-118.66 80.612-46.729 0-98.14-29.358-115.694-69.39-17.554 41.01-70.064 69.39-117.772 69.39-45.141 0-92.451-31.285-117.773-75.903-22.57 45.903-75.907 75.903-109.546 75.903-16.454 0-46.729 1.805-61.41-3.396L105.497 762.523 105.497 762.523zM72.192 449.369c0 43.243 48.596 63.61 95.693 63.61 46.425 0 94.805-32.11 94.805-63.61l29.635 0c0 40.399 55.109 62.631 103.4 62.631 46.302 0 101.106-31.04 101.106-62.631l30.336 0c0 30.613 53.888 62.631 100.19 62.631 48.289 0 104.378-31.04 104.378-62.631l29.604 0c0 32.142 74.59 62.693 124.96 62.723 43.61 0.031 65.141-19.48 65.568-62.723l0 0 0-62.63L72.132 386.739 72.192 449.369zM952.909 324.108l-1.04 0L802.871 73.586l-581.62 0L75.343 324.108 952.909 324.108 952.909 324.108z" p-id="1664"></path></svg>